<?xml version="1.0" encoding="utf-8"?>
<!-- Generator: Adobe Illustrator 19.0.1, SVG Export Plug-In . SVG Version: 6.00 Build 0)  -->
<svg version="1.1" id="Слой_1" xmlns="http://www.w3.org/2000/svg" xmlns:xlink="http://www.w3.org/1999/xlink" x="0px" y="0px"
	 viewBox="0 0 555 555" style="enable-background:new 0 0 555 555;" xml:space="preserve">
<style type="text/css">
	.st0{fill:none;stroke:#312783;stroke-width:53.8583;stroke-miterlimit:22.9256;}
	.st1{fill-rule:evenodd;clip-rule:evenodd;fill:#312783;}
	.st2{fill:none;stroke:#312783;stroke-width:7.9999;stroke-miterlimit:22.9256;}
	.st3{fill-rule:evenodd;clip-rule:evenodd;fill:#312783;stroke:#312783;stroke-width:0.216;stroke-miterlimit:22.9256;}
	.st4{fill-rule:evenodd;clip-rule:evenodd;fill:#FFFFFF;}
	.st5{fill-rule:evenodd;clip-rule:evenodd;fill:#FFFFFF;stroke:#FFFFFF;stroke-width:0.216;stroke-miterlimit:22.9256;}
</style>
<g>
	<path class="st0" d="M278.5687,29.4291c-136.946,0-248.6396,111.6935-248.6396,248.6395s111.6936,248.6395,248.6396,248.6395
		s248.6395-111.6936,248.6395-248.6395S415.5147,29.4291,278.5687,29.4291L278.5687,29.4291z"/>
	<path class="st1" d="M240.2202,355.429l-16.2031-0.0762c-25.85-0.121-59.5077-30.5056-59.5627-50.6469l-0.2095-74.9747
		c-0.036-13.199-13.5343-12.3077-24.628-12.3077v-68.2716l46.0137,0.1165c28.1682,0.0706,54.5843,24.628,54.5854,47.2524
		L240.2202,355.429L240.2202,355.429z"/>
	<path class="st2" d="M139.7535,136.2865l54.5712-0.0045c33.9196,4.8915,58.1615,29.8341,60.8397,58.7418v173.3692
		c4.0204,23.705,49.559,24.5121,51.7487,0.059V195.7231c5.2447-29.6626,29.4868-48.661,60.8397-55.9446l54.3609-0.0159
		 M139.7535,118.4095l54.265-0.0156c44.7619,1.3119,78.5888,42.0707,78.5789,83.9282v162.7951
		c6.0344,7.6921,11.7391,7.0019,17.115,0.1607V202.1367c-1.5273-35.8846,47.9233-82.4882,82.8952-80.2208h49.3716"/>
	<path class="st3" d="M421.8203,219.6174l-11.2014,0.4428c-8.7642,0.3452-17.0476,7.308-17.0374,17.2494l0.1278,131.6693
		c-3.4866,79.0067-76.7378,107.8608-114.279,108.694c-35.8693,0.7945-119.6708-32.1602-117.2058-114.3596l79.1257,0.0009
		c7.1946,50.953,71.3478,50.8016,77.9808,1.9675l0.2489-162.584c0.0383-24.6515,25.7097-50.8802,54.7098-50.8218l47.5305,0.0964
		V219.6174L421.8203,219.6174z"/>
	<path class="st4" d="M48.8578,215.2546l-2.3312,10.097l-0.5613-0.1295l0.1381-0.5975c0.2761-1.1954,0.1176-1.8612-0.4697-1.9968
		c-0.296-0.0683-0.7256-0.0091-1.2954,0.1826l-11.1674,3.6561l7.7395,6.4723c0.6202,0.5154,1.1356,0.8203,1.5514,0.9164
		c0.9561,0.2208,1.6285-0.5108,2.0172-2.1943l0.1202-0.5199l0.5612,0.1296l-1.5958,6.9117l-0.561-0.1298
		c0.0114-0.7858-0.1163-1.3952-0.3722-1.8264c-0.2625-0.4275-0.8663-1.0375-1.8148-1.8366l-12.3185-10.2061
		c-0.9836-0.8127-1.8561-1.7039-2.6033-2.6643c-0.7611-0.9695-0.9904-2.1115-0.6857-3.4316
		c0.2389-1.0341,0.6712-1.8156,1.2982-2.3496c0.6203-0.5301,1.3898-0.6863,2.3043-0.4751c0.6497,0.15,1.144,0.4501,1.4783,0.8997
		c0.3328,0.4544,0.4269,0.9961,0.2815,1.6248c-0.1355,0.5873-0.377,0.9695-0.7141,1.1489
		c-0.3422,0.1783-0.8586,0.2342-1.5505,0.1729c-0.9706-0.087-1.5285,0.1726-1.6691,0.7806
		c-0.0851,0.3691,0.0522,0.7946,0.4167,1.2784c0.3645,0.4836,0.9539,1.0358,1.7592,1.6486l17.1187-5.654
		c0.8875-0.2878,1.4714-0.5414,1.7404-0.7586c0.2701-0.2222,0.4788-0.6503,0.6239-1.2793L48.8578,215.2546L48.8578,215.2546z
		 M41.2377,246.6888l-6.3099-0.7747c-5.4204-0.6656-9.1255-1.5179-11.1254-2.5588c-1.9942-1.0454-2.8641-2.6246-2.6036-4.7472
		c0.1483-1.207,0.5366-2.0514,1.1707-2.5325c0.6279-0.4762,1.3286-0.6695,2.0909-0.576c0.6619,0.0814,1.1829,0.3441,1.559,0.7827
		c0.3759,0.4382,0.5267,0.9621,0.4533,1.5602c-0.1293,1.0533-0.8274,1.5746-2.0948,1.5695
		c-0.5908-0.0028-0.9777,0.0411-1.1648,0.1205c-0.1927,0.0836-0.301,0.2636-0.3353,0.5445
		c-0.1106,0.8997,0.7021,1.7195,2.4429,2.4653c1.7413,0.7404,4.8055,1.3853,9.199,1.9247l4.7328,0.5811
		c1.2809,0.157,2.1123,0.0822,2.4819-0.2166c0.3759-0.3031,0.6194-0.9287,0.7356-1.8763l0.0632-0.5134l0.5718,0.07l-2.175,17.7122
		l-0.5715-0.0703l0.055-0.4498c0.125-1.0165,0.0181-1.7226-0.3254-2.1192c-0.3381-0.3963-1.0361-0.6647-2.0894-0.7943
		l-15.1979-1.8661c-1.0534-0.1292-1.7941-0.0482-2.2167,0.2438c-0.4221,0.2869-0.703,0.9561-0.8311,1.999l-0.0553,0.4499
		l-0.5718-0.0703l1.3372-10.8887l0.5717,0.07l-0.0476,0.3866c-0.1142,0.9318,0.0023,1.6016,0.3453,2.0036
		c0.348,0.403,0.9558,0.6602,1.8346,0.7679l17.4157,2.1385L41.2377,246.6888L41.2377,246.6888z M41.0248,260.7861l-0.1967,11.2782
		l-0.576-0.0099c0.0215-1.2319-0.1295-2.0559-0.4581-2.4885c-0.3231-0.4269-1.0023-0.6469-2.0367-0.665l-6.8413-0.1194
		l-0.0599,3.418c-0.0349,1.9999-0.2962,3.5314-0.7843,4.6003c-0.4879,1.0639-1.2181,1.942-2.2012,2.6394
		c-0.983,0.6976-2.0503,1.0366-3.2074,1.0162c-1.4987-0.0261-2.8519-0.7166-4.0657-2.0713
		c-1.2084-1.3546-1.7887-3.5677-1.7351-6.639l0.1978-11.3423l0.576,0.0099c-0.0227,1.3011,0.1386,2.1416,0.4841,2.5208
		c0.3398,0.3844,1.0993,0.5845,2.2776,0.6052l15.1815,0.265c1.1891,0.0207,1.9601-0.1579,2.3085-0.5304
		c0.3531-0.3781,0.5383-1.207,0.561-2.4973L41.0248,260.7861L41.0248,260.7861z M29.5558,268.7577l-6.7453-0.1176
		c-1.0664-0.0187-1.8003,0.1446-2.217,0.4896c-0.4113,0.3501-0.6233,0.8799-0.6358,1.5999
		c-0.0178,1.029,0.3765,1.9533,1.1892,2.7729c0.807,0.8141,1.8932,1.2331,3.2584,1.2572c1.4343,0.0249,2.6411-0.3487,3.6202-1.1316
		c0.979-0.7778,1.4794-1.948,1.5069-3.5101L29.5558,268.7577L29.5558,268.7577z M29.3305,296.2631l-7.0025,0.6126
		c-0.9246,0.0808-1.574-0.0604-1.9542-0.4286c-0.3745-0.3634-0.6128-1.0706-0.7044-2.1175l-0.0283-0.324l-0.574,0.0505
		l0.9805,11.205l0.5737-0.0504l-0.0275-0.3132c-0.0907-1.0361,0.0162-1.7737,0.3104-2.2062
		c0.2994-0.4331,0.9194-0.6908,1.8649-0.7736l15.9072-1.3918c0.9402-0.0822,1.601,0.0635,1.9655,0.4386
		c0.3699,0.3744,0.5981,1.0826,0.6888,2.1189l0.0272,0.3132l0.574-0.0502l-0.9521-10.8811
		c-0.2588-2.9591-1.0236-5.0287-2.3006-6.2229c-1.2764-1.1894-2.7618-1.7073-4.4673-1.5582
		c-1.3655,0.1196-2.4673,0.6174-3.3002,1.5041c-0.8328,0.8813-1.3969,2.1458-1.6917,3.7939l-7.6047-3.8854
		c-1.8054-0.9286-2.7709-1.808-2.8965-2.632l-0.5737,0.0502l0.5595,6.3967l10.5398,5.3685L29.3305,296.2631L29.3305,296.2631z
		 M40.0681,295.3237l-9.5686,0.8371l-0.1066-1.2166c-0.1525-1.7427,0.1721-2.9917,0.9731-3.7471
		c0.8013-0.7554,1.9349-1.1971,3.3962-1.3249c1.2166-0.1066,2.2031,0.032,2.9692,0.4093c0.7668,0.3773,1.3102,0.8972,1.6359,1.5593
		c0.3195,0.6574,0.5328,1.5647,0.6338,2.7179L40.0681,295.3237L40.0681,295.3237z M33.5555,323.0105l-1.7798-9.1562l-6.9943,1.3595
		c-1.0001,0.1942-1.6963,0.498-2.0843,0.9048c-0.3872,0.4121-0.4941,1.0633-0.3192,1.9636l0.1108,0.5706l-0.5655,0.11
		l-2.0809-10.7065l0.5656-0.1097l0.0944,0.487c0.167,0.8586,0.4986,1.419,0.9952,1.6809c0.4955,0.2568,1.2671,0.286,2.3088,0.0836
		l14.6957-2.8565c1.021-0.1984,1.7263-0.5094,2.1127-0.9269c0.3852-0.4224,0.4921-1.0735,0.3211-1.9531l-0.0947-0.487l0.5656-0.11
		l2.0812,10.7061l-0.5656,0.11l-0.1108-0.5703c-0.169-0.8694-0.506-1.4284-1.0066-1.6844
		c-0.4998-0.2505-1.2759-0.2735-2.3278-0.0689l-6.3819,1.2404l1.7798,9.1562l6.3816-1.2405
		c1.0211-0.1984,1.7264-0.5094,2.1127-0.9266c0.3852-0.4227,0.4924-1.0738,0.3215-1.9531l-0.0947-0.487l0.5652-0.11l2.0659,10.6279
		l-0.5655,0.1097l-0.0987-0.5077c-0.1669-0.8586-0.5039-1.4182-1.0046-1.6739c-0.5006-0.256-1.2778-0.2843-2.3298-0.0797
		l-14.6957,2.8565c-1,0.1944-1.6959,0.4983-2.0823,0.9156c-0.3869,0.4121-0.494,1.0633-0.3212,1.9534l0.0989,0.5077l-0.5655,0.11
		l-2.0659-10.6276l0.5655-0.11l0.0947,0.487c0.1667,0.8583,0.4984,1.4187,0.995,1.6809c0.4954,0.2568,1.2671,0.286,2.309,0.0833
		L33.5555,323.0105L33.5555,323.0105z M42.0839,356.0804c-3.0864,0.885-5.9738,0.5868-8.6593-0.8847
		c-2.6858-1.4715-4.521-3.9246-5.506-7.3596c-0.5999-2.0917-0.7277-4.0856-0.3858-5.9703c0.3416-1.8842,1.1987-3.617,2.5707-5.1979
		c1.3719-1.5806,3.2295-2.7068,5.5726-3.3786c2.3737-0.6806,4.572-0.6953,6.5903-0.0422c2.0165,0.6477,3.666,1.7175,4.9413,3.2048
		c1.2753,1.4874,2.1833,3.1632,2.7167,5.0244c0.9496,3.3117,0.7027,6.3397-0.7473,9.0802
		C47.7325,353.2956,45.3697,355.1382,42.0839,356.0804L42.0839,356.0804z M40.3621,350.6373
		c3.2604-0.9348,5.6118-2.1971,7.0469-3.7902c1.4349-1.5934,1.9006-3.2585,1.4009-5.0015
		c-0.5057-1.7634-1.7705-2.9432-3.7959-3.5442c-2.0253-0.6012-4.6128-0.4529-7.7709,0.4527
		c-2.9222,0.8379-5.1678,2.0424-6.7334,3.6062c-1.5656,1.5642-2.0854,3.2723-1.5579,5.1129
		c0.5176,1.8045,1.8022,2.9954,3.8557,3.5773C34.8606,351.6322,37.3784,351.4928,40.3621,350.6373L40.3621,350.6373z
		 M48.3339,371.233c0.413,1.6909,0.3807,3.263-0.0873,4.7234c-0.4733,1.4624-1.4255,2.4797-2.8548,3.0574
		c-1.1372,0.4595-2.2869,0.5038-3.446,0.1264c-1.152-0.3739-2.1665-1.063-3.0336-2.0701c-0.8652-1.0023-1.5645-2.1634-2.0999-3.4889
		l-4.4314-10.9678l0.5341-0.2157l0.246,0.6083c0.3356,0.8308,0.775,1.3204,1.3113,1.4661c0.538,0.1508,1.2943,0.0295,2.2685-0.3643
		l13.8807-5.6081c1.1769-0.4753,1.8442-0.987,1.9953-1.5253c0.1553-0.5403,0.102-1.1282-0.1559-1.7662l-0.1698-0.4204l0.5341-0.2158
		l4.0158,9.9394c1.0388,2.5716,1.3552,4.6638,0.9476,6.2895c-0.4022,1.6237-1.3504,2.7371-2.8386,3.3384
		c-1.2365,0.4995-2.4049,0.5116-3.5099,0.0261C50.3372,373.6849,49.2997,372.7121,48.3339,371.233L48.3339,371.233z M54.715,362.339
		l-8.1839,3.3066l0.1698,0.4201c0.6475,1.6024,1.474,2.666,2.4851,3.1895c1.0108,0.5233,2.2014,0.5083,3.5708-0.045
		c0.9397-0.3796,1.658-0.923,2.1566-1.6248c0.5014-0.7089,0.739-1.4029,0.7117-2.0823c-0.0292-0.6843-0.2509-1.5324-0.6645-2.5558
		L54.715,362.339L54.715,362.339z M45.4582,366.079l-6.8785,2.7791c-0.8209,0.3319-1.3278,0.686-1.5126,1.0539
		c-0.1879,0.3753-0.1497,0.8833,0.1122,1.531c0.5193,1.2855,1.3275,2.1328,2.4321,2.5316c1.1018,0.4062,2.2711,0.3538,3.5172-0.1499
		c1.2266-0.4955,2.1506-1.3402,2.7772-2.5367c0.6219-1.1948,0.5292-2.7907-0.2778-4.7886L45.4582,366.079L45.4582,366.079z
		 M70.5496,392.3482l-6.4984,3.4551l-0.2929-0.5511c1.6237-1.2742,2.5487-2.7383,2.7791-4.3951
		c0.2259-1.6543-0.0071-3.1374-0.7004-4.4416c-0.606-1.1395-1.4791-1.9981-2.6246-2.5733
		c-1.1381-0.5723-2.5041-0.8127-4.0958-0.7274c-1.5866,0.0825-3.4254,0.6797-5.5117,1.7889
		c-3.0657,1.6302-5.0012,3.4084-5.8096,5.3419c-0.8034,1.9312-0.743,3.7718,0.1859,5.5188c0.6911,1.2997,1.6977,2.3289,3.022,3.1048
		c1.3221,0.7708,2.6524,1.1931,3.9926,1.2716l-1.6671,0.8864c-3.141-0.8064-5.4824-2.6541-7.0172-5.5406
		c-1.6977-3.1927-2.0622-6.2186-1.0961-9.0822c0.9686-2.8585,2.7689-4.9938,5.3966-6.391c2.8962-1.5398,5.9046-1.8346,9.0202-0.8935
		c3.1181,0.9453,5.3846,2.7542,6.8094,5.4337c0.7083,1.3323,1.1648,2.9625,1.3606,4.8878c0.0677,0.7977,0.1967,1.3697,0.3768,1.7084
		c0.3906,0.7345,1.0856,0.951,2.0778,0.6469L70.5496,392.3482L70.5496,392.3482z M70.5233,394.2908l5.9837,9.214l-0.483,0.3138
		c-0.4621-0.692-0.828-1.1477-1.0871-1.3609c-0.2668-0.2146-0.6029-0.3206-1.0171-0.3124
		c-0.4099,0.0054-0.9199,0.2095-1.5327,0.6075l-5.8459,3.7962l0.8076,1.2436c0.5956,0.917,1.0219,1.4856,1.2648,1.703
		c0.2506,0.2191,0.6228,0.3714,1.1277,0.4635c0.5065,0.0845,0.9677,0.0901,1.3918,0.0181c0.4258-0.0791,1.5403-0.409,3.3613-0.9935
		c1.7552-0.5675,3.1493-0.7415,4.1896-0.5208c1.04,0.2211,1.9196,0.8901,2.6458,2.0084c0.6015,0.9261,0.8221,1.7748,0.6633,2.539
		c-0.1602,0.7719-0.5729,1.3706-1.2347,1.8003c-0.559,0.3631-1.1347,0.4952-1.7266,0.3963
		c-0.595-0.1032-1.0499-0.3926-1.3697-0.8847c-0.6012-0.9261-0.3524-1.8252,0.7472-2.698c0.3824-0.3121,0.6097-0.5298,0.6882-0.6633
		c0.0742-0.131,0.0595-0.2804-0.0479-0.4459c-0.5896-0.9082-2.2006-0.9111-4.8325-0.0094
		c-1.6875,0.5743-2.8375,0.8697-3.4473,0.8904c-0.6128,0.0164-1.2937-0.0629-2.0576-0.2407c0.479,1.1194,0.3835,2.4024-0.2878,3.856
		l-3.0577,6.5135c-0.7274,1.5534-0.7928,2.8233-0.1982,3.7979l-0.483,0.3138l-3.7443-5.7654l4.5264-9.8141
		c0.3359-0.7268,0.4856-1.2501,0.4468-1.5743c-0.0346-0.3274-0.2087-0.7228-0.5139-1.1928l-6.3292,4.1103
		c-0.5769,0.3747-0.9601,0.7447-1.1492,1.1092c-0.1939,0.3674-0.2455,0.7189-0.1621,1.0528
		c0.0813,0.341,0.3506,0.8725,0.8061,1.5939l-0.483,0.3135l-5.9836-9.214l0.483-0.3138c0.5522,0.8116,0.9782,1.33,1.2696,1.5539
		c0.2962,0.2211,0.6265,0.3184,0.9938,0.2767c0.3629-0.0386,0.8969-0.2835,1.599-0.7396l13.0249-8.4586
		c0.6979-0.453,1.1418-0.8368,1.3249-1.1526c0.1899-0.3144,0.2444-0.6421,0.1684-0.9936c-0.0771-0.3441-0.3835-0.953-0.923-1.8235
		L70.5233,394.2908L70.5233,394.2908z M82.924,414.1549l6.914,8.5382l-0.4476,0.3623c-0.6747-0.8331-1.273-1.3091-1.7918-1.4241
		c-0.5148-0.1188-1.2299,0.1931-2.1458,0.9349l-10.1007,8.1793l16.088-1.1075c0.7296-0.591,1.1327-1.1437,1.2053-1.6557
		c0.0695-0.5159-0.2645-1.2337-1.0131-2.1581l0.4479-0.3625l6.8938,8.5133l-0.4476,0.3625l-0.2183-0.2693
		c-0.6276-0.7753-1.1999-1.2107-1.7096-1.3059c-0.5171-0.096-1.1217,0.1397-1.8181,0.7039l-12.3846,10.0287
		c-0.5763,0.4666-0.9258,0.8734-1.0579,1.2274c-0.1247,0.3546-0.1451,0.6939-0.0434,1.023
		c0.0978,0.3325,0.4487,0.8929,1.0547,1.6923l-0.4476,0.3626l-6.8941-8.5136l0.4476-0.3626
		c0.6951,0.8581,1.3173,1.3218,1.8558,1.3935c0.5383,0.0717,1.2348-0.2381,2.0846-0.9261l10.1503-8.2197l-16.0759,1.0974
		c-0.8039,0.6511-1.2228,1.2444-1.2563,1.779c-0.0337,0.5351,0.2982,1.241,0.9995,2.1073l-0.4476,0.3625l-6.9139-8.5382
		l0.4475-0.3625l0.2183,0.2695c0.6477,0.8,1.2308,1.2405,1.7342,1.3198c0.508,0.076,1.1056-0.1607,1.7935-0.7177l12.5047-10.1262
		c0.6673-0.5403,1.0214-1.0605,1.0783-1.5664c0.0496-0.5068-0.2591-1.1764-0.9337-2.0095l-0.2183-0.2693L82.924,414.1549
		L82.924,414.1549z M109.6785,442.9557c-1.5265-1.5806-2.4009-2.9086-2.6158-3.9909c-0.2191-1.0785-0.0425-1.8941,0.5252-2.4423
		c0.307-0.2965,0.6676-0.4297,1.0743-0.4077c0.411,0.0261,0.7662,0.1945,1.0701,0.5091c0.5853,0.606,0.65,1.4559,0.1896,2.5381
		c-0.4674,1.0588-0.2806,2.0279,0.5638,2.9024c0.5374,0.5564,1.0185,0.8779,1.4468,0.9756
		c0.4243,0.0944,0.9799,0.0323,1.6591-0.1933c1.0811-0.3623,1.9091-0.2497,2.4797,0.3413c0.3036,0.3144,0.4592,0.6829,0.4672,1.0907
		c0.0079,0.4147-0.1644,0.7889-0.5174,1.1296c-0.591,0.5709-1.4264,0.6883-2.5032,0.3563
		C112.4378,445.4292,111.1605,444.4904,109.6785,442.9557L109.6785,442.9557z M99.4642,434.7662l7.632,7.903l-0.4144,0.4002
		c-0.7447-0.7713-1.3825-1.1934-1.9092-1.2629c-0.5233-0.0734-1.2084,0.2997-2.0562,1.1183l-9.7447,9.4102l16.7323-3.2797
		c0.4853-0.5726,0.6908-1.1044,0.6126-1.5999c-0.0782-0.4958-0.4671-1.1058-1.1602-1.8236l0.4144-0.3999l7.6099,7.8803l-0.4144,0.4
		l-0.2409-0.2495c-0.6928-0.7175-1.3008-1.1013-1.817-1.152c-0.5233-0.0505-1.1053,0.2372-1.7498,0.8597l-11.4633,11.0698
		c-0.5332,0.5151-0.8461,0.951-0.9471,1.315c-0.093,0.3643-0.0839,0.7042,0.0462,1.0231c0.1264,0.3228,0.5247,0.8503,1.1982,1.5939
		l-0.4145,0.4l-7.6096-7.88l0.4141-0.4003c0.7671,0.7943,1.4275,1.2019,1.9701,1.2263c0.5428,0.0247,1.2095-0.3447,1.9958-1.1041
		l9.7333-9.3992l-16.721,3.269c-0.4893,0.5834-0.6911,1.1268-0.6129,1.6223c0.0779,0.4955,0.4635,1.1018,1.1599,1.8229
		l-0.4144,0.4003l-7.6317-7.903l0.4142-0.4002l0.2409,0.2495c0.7149,0.7404,1.3346,1.1284,1.8428,1.1636
		c0.5125,0.0315,1.0871-0.2562,1.724-0.8713l11.5747-11.1773c0.6174-0.5964,0.9249-1.1458,0.9374-1.6546
		c0.0054-0.5091-0.3606-1.1491-1.1052-1.9205l-0.2409-0.2491L99.4642,434.7662L99.4642,434.7662z M137.244,469.4738l-3.579,4.5811
		l-0.4666-0.3648c0.5253-1.0446,0.8362-1.9794,0.928-2.8074c0.0922-0.8283,0.0173-1.4686-0.2202-1.9185
		c-0.2375-0.4496-0.7132-0.9496-1.4278-1.5078l-5.0601-3.9535l-10.8125,13.8393c-0.5516,0.7061-0.7909,1.3246-0.7248,1.8635
		c0.0694,0.5349,0.5312,1.1392,1.3844,1.8059l0.6642,0.5187l-0.3546,0.4539l-9.4561-7.3876l0.3546-0.4541l0.6177,0.4827
		c0.7733,0.6041,1.4193,0.8515,1.931,0.7506c0.5122-0.101,1.1072-0.5766,1.7736-1.4298l9.5125-12.1751
		c0.6797-0.8702,0.9408-1.5593,0.7809-2.0565c-0.1565-0.5015-0.6318-1.0624-1.4304-1.6863l-0.3696-0.2886l0.3546-0.4541
		L137.244,469.4738L137.244,469.4738z M152.2093,492.3316c-1.7014,2.7227-4.0467,4.4331-7.0271,5.1367
		c-2.9803,0.7039-5.9859,0.1086-9.0162-1.785c-1.8454-1.1531-3.2746-2.5491-4.2817-4.1785
		c-1.0068-1.6291-1.5293-3.4901-1.5676-5.5831c-0.038-2.0925,0.5887-4.1726,1.8805-6.2396c1.3084-2.094,2.9324-3.5759,4.8691-4.441
		c1.9323-0.868,3.8735-1.1766,5.8167-0.9249c1.9428,0.252,3.7392,0.89,5.381,1.9159c2.9217,1.8258,4.7642,4.2412,5.5205,7.2482
		C154.5436,486.4823,154.0206,489.4326,152.2093,492.3316L152.2093,492.3316z M147.2874,489.4388
		c1.7975-2.8766,2.7003-5.3881,2.7009-7.5322c0-2.1441-0.7676-3.6932-2.3054-4.6542c-1.5559-0.9723-3.285-1.0023-5.1925-0.0938
		c-1.9074,0.9084-3.731,2.7498-5.472,5.536c-1.6109,2.5781-2.4738,4.976-2.5909,7.1855c-0.1168,2.2101,0.6398,3.8273,2.2635,4.8419
		c1.5922,0.9949,3.3438,1.0201,5.2589,0.0788C143.8652,493.8592,145.6428,492.0711,147.2874,489.4388L147.2874,489.4388z
		 M178.3041,493.5666l-3.3412,6.5577l-0.5562-0.2835c0.5993-1.9749,0.5171-3.7049-0.2443-5.1942
		c-0.7639-1.4847-1.8054-2.5659-3.1215-3.2366c-1.1497-0.5859-2.3579-0.7886-3.6258-0.6027
		c-1.2606,0.1839-2.5174,0.7708-3.772,1.7535c-1.2526,0.9777-2.4163,2.5217-3.4889,4.6267
		c-1.5764,3.0938-2.1419,5.6605-1.6951,7.7079c0.4496,2.043,1.5548,3.5158,3.3177,4.4141c1.3116,0.6685,2.7263,0.9343,4.2565,0.8099
		c1.5247-0.1267,2.8568-0.5437,3.9997-1.2484l-0.8572,1.6824c-3.0353,1.1409-6.0131,0.9705-8.926-0.5136
		c-3.2219-1.6416-5.256-3.9113-6.107-6.8112c-0.8464-2.897-0.5961-5.6786,0.7549-8.3304c1.489-2.9222,3.7842-4.8895,6.876-5.9057
		c3.0966-1.014,5.9908-0.8322,8.6947,0.5454c1.3448,0.6851,2.6535,1.7589,3.9183,3.2235c0.5128,0.6143,0.9465,1.0092,1.2883,1.1832
		c0.7413,0.3778,1.4349,0.1562,2.073-0.6616L178.3041,493.5666L178.3041,493.5666z M178.7993,494.5219l9.6744,3.7137l-0.2066,0.5377
		l-0.5723-0.2197c-1.1455-0.4396-1.8266-0.3753-2.0426,0.1874c-0.1089,0.2834-0.11,0.7175,0.0003,1.3079l2.0665,11.5677
		l7.4866-6.7635c0.5964-0.542,0.9703-1.01,1.1234-1.4082c0.3515-0.9162-0.2792-1.6841-1.8924-2.3032l-0.498-0.1913l0.2064-0.5377
		l6.6223,2.5421l-0.2064,0.5377c-0.7764-0.1207-1.3978-0.0793-1.8604,0.1143c-0.4601,0.2004-1.148,0.7132-2.0716,1.5415
		l-11.821,10.7781c-0.9417,0.8609-1.9457,1.601-3.0008,2.207c-1.0658,0.6191-2.2289,0.6869-3.4934,0.2016
		c-0.991-0.3804-1.7047-0.9173-2.1464-1.6124c-0.4385-0.6883-0.4861-1.472-0.1497-2.3482c0.2387-0.6225,0.6049-1.0704,1.0967-1.3386
		c0.4963-0.2664,1.0457-0.284,1.6483-0.0527c0.5627,0.2158,0.9074,0.5082,1.0381,0.8669c0.129,0.364,0.1125,0.883-0.0445,1.5596
		c-0.2214,0.949-0.0417,1.5378,0.5408,1.7614c0.3535,0.1355,0.794,0.059,1.3238-0.2344c0.5298-0.2939,1.1585-0.8008,1.8777-1.5128
		l-3.2165-17.7389c-0.1616-0.919-0.3316-1.5324-0.5091-1.8292c-0.1825-0.2985-0.5774-0.5647-1.1801-0.796L178.7993,494.5219
		L178.7993,494.5219z M204.7619,504.692l17.5669,4.7069l-0.1491,0.5565c-1.2158-0.3257-2.0648-0.371-2.541-0.1397
		c-0.4774,0.2364-0.8734,0.9308-1.1826,2.0851l-3.9603,14.7795c-0.2636,0.9839-0.2344,1.6988,0.0844,2.1373
		c0.3172,0.4439,1.0636,0.832,2.2326,1.1671l-1.7628,6.5783l-0.5562-0.1488c0.3399-1.5984,0.0879-3.1513-0.7611-4.6595
		c-0.8456-1.5021-2.3392-2.543-4.4716-3.1144l-6.7899-1.8193c-2.0917-0.5604-3.8846-0.4224-5.3665,0.4119
		c-1.489,0.8376-2.5305,2.0662-3.1243,3.6848l-0.5564-0.1491l1.7625-6.5784c2.2785,0.2347,4.3915-0.811,6.3391-3.1329
		c1.9457-2.3167,3.7565-6.6022,5.4309-12.8508c0.2016-0.7523,0.1741-1.3504-0.0825-1.7944
		c-0.2628-0.4404-0.8444-0.7841-1.7509-1.027l-0.5102-0.1369L204.7619,504.692L204.7619,504.692z M214.7223,508.7524l-6.0375-1.6177
		l-0.4969,1.8544c-0.7552,2.8182-1.8201,5.8235-3.2009,9.0201c-1.3796,3.1918-3.1969,5.3992-5.4555,6.6161l8.6341,2.3133
		c0.6848,0.1838,1.1412,0.2121,1.3683,0.0854c0.2273-0.1267,0.4317-0.5193,0.6072-1.1736L214.7223,508.7524L214.7223,508.7524z
		 M232.7061,527.6864l-6.9066-1.2181l-1.4933,2.3256c-0.3515,0.5499-0.5547,0.9961-0.614,1.3323
		c-0.1026,0.5831,0.0331,1.0403,0.4056,1.3549c0.3713,0.3201,1.067,0.5837,2.0871,0.785l-0.1,0.5675l-6.9381-1.2234l0.1001-0.5672
		c1.3816,0.2109,2.8772-0.9604,4.4907-3.5082l10.1506-16.0111l0.3098,0.0544l4.2672,19.5338
		c0.4941,2.2966,1.3337,3.5549,2.526,3.7652l-0.1001,0.5672l-10.1103-1.783l0.0998-0.5672l0.3835,0.0677
		c1.4287,0.2517,2.2025,0.0093,2.3304-0.7155c0.0352-0.1995,0.0077-0.5349-0.0916-1.0181L232.7061,527.6864L232.7061,527.6864z
		 M232.4447,526.465l-1.6838-7.8029l-4.2879,6.7501L232.4447,526.465L232.4447,526.465z M252.2391,526.6183l-0.457,6.5333
		c-0.0709,1.0162,0.0422,1.7673,0.3401,2.2478c0.2923,0.4802,0.8884,0.7518,1.7822,0.8145l0.6066,0.0422l-0.0403,0.5745
		l-11.1461-0.7792l0.0403-0.5745l0.7821,0.0547c0.883,0.0615,1.5106-0.119,1.8873-0.5366c0.3713-0.4175,0.5936-1.1503,0.667-2.1986
		l1.0443-14.9343c0.0726-1.0375-0.04-1.7988-0.3379-2.2796c-0.303-0.4811-0.9042-0.7529-1.8085-0.8161l-0.7824-0.0547l0.0403-0.5745
		l11.1461,0.7792c3.0855,0.2157,5.2841,0.9632,6.5959,2.2365c1.3113,1.2784,1.9066,2.7048,1.796,4.2849
		c-0.1089,1.5588-0.8816,2.9001-2.3134,4.0297c-1.4366,1.1239-3.9427,1.5636-7.5178,1.3136L252.2391,526.6183L252.2391,526.6183z
		 M252.9931,515.8339l-0.6721,9.6137l1.6546,0.1159c1.5375,0.1075,2.7139-0.2004,3.5342-0.9238
		c0.8156-0.7288,1.2804-1.8726,1.3895-3.4314c0.1074-1.5375-0.1168-2.7668-0.6831-3.6884c-0.5612-0.9215-1.749-1.4431-3.5685-1.5704
		L252.9931,515.8339L252.9931,515.8339z M287.8921,515.8766l-0.1284,7.3588l-0.6242-0.0107
		c-0.3271-2.0378-1.1594-3.5569-2.4968-4.5615c-1.3374-0.9995-2.7473-1.5148-4.2242-1.5406
		c-1.2903-0.0226-2.4647,0.3249-3.5229,1.0477c-1.0525,0.718-1.925,1.7963-2.622,3.2298c-0.6971,1.4276-1.0661,3.3256-1.1072,5.688
		c-0.0607,3.4716,0.5561,6.0265,1.8553,7.6709c1.2997,1.639,2.9387,2.4783,4.917,2.5129c1.4718,0.0258,2.8602-0.3555,4.1808-1.1378
		c1.3147-0.7827,2.3292-1.7413,3.0475-2.8755l-0.0329,1.8879c-2.228,2.3562-4.9793,3.5082-8.248,3.4512
		c-3.6153-0.0632-6.4386-1.2112-8.4744-3.4446c-2.0307-2.2328-3.0254-4.8427-2.9735-7.8182
		c0.0573-3.2794,1.258-6.0536,3.5915-8.3223c2.3386-2.2691,5.0193-3.3743,8.0535-3.3213c1.5092,0.0264,3.1558,0.4175,4.9349,1.1795
		c0.7304,0.3274,1.2932,0.4921,1.6769,0.4988c0.8317,0.0145,1.3578-0.4886,1.573-1.5035L287.8921,515.8766L287.8921,515.8766z
		 M309.4377,514.2626l0.4045,5.7833l-0.5907,0.0414c-0.6276-3.0141-2.2932-4.4323-4.9961-4.2432l-2.0534,0.1437l1.2044,17.227
		c0.0711,1.0165,0.2877,1.7444,0.6494,2.1788c0.3674,0.4342,1.0003,0.6196,1.9048,0.5564l0.7929-0.0553l0.0399,0.5746
		l-11.4225,0.7988l-0.0403-0.5746l0.8408-0.059c0.6968-0.0487,1.2493-0.2529,1.658-0.6024
		c0.4082-0.3549,0.5701-1.1733,0.4799-2.4608l-1.2044-17.2272l-2.2292,0.1559c-0.8674,0.0607-1.5647,0.2537-2.1089,0.5805
		c-0.5383,0.3263-1.0066,0.8938-1.3992,1.702c-0.3923,0.813-0.6043,1.6781-0.6307,2.5994l-0.6386,0.0447l-0.4045-5.7833
		L309.4377,514.2626L309.4377,514.2626z M325.6119,522.1313c1.7402-0.0524,3.2709,0.3058,4.602,1.0676
		c1.332,0.767,2.1294,1.91,2.397,3.4279c0.2132,1.2079,0.0175,2.3417-0.5924,3.397c-0.6055,1.0491-1.4902,1.8984-2.6555,2.537
		c-1.1605,0.6378-2.4415,1.0803-3.8495,1.3286l-11.6495,2.0543l-0.1001-0.5676l0.6463-0.1139
		c0.8824-0.1554,1.4527-0.4833,1.7067-0.9777c0.2594-0.4952,0.2979-1.26,0.1154-2.295l-2.5996-14.7432
		c-0.2205-1.2501-0.582-2.0092-1.0772-2.2689c-0.496-0.2645-1.0823-0.3342-1.76-0.2149l-0.4464,0.0789l-0.1-0.5673l10.5571-1.8615
		c2.7314-0.4817,4.8438-0.3561,6.3493,0.3807c1.5043,0.731,2.3964,1.8898,2.675,3.4707c0.2316,1.313,0.0006,2.4585-0.7041,3.4387
		C328.427,520.6814,327.2597,521.4941,325.6119,522.1313L325.6119,522.1313z M318.2393,514.0404l1.5327,8.6924l0.4464-0.0786
		c1.7016-0.3002,2.914-0.8875,3.6363-1.7676c0.722-0.8799,0.955-2.0475,0.6985-3.5022c-0.176-0.9981-0.5581-1.8133-1.141-2.4472
		c-0.5893-0.6381-1.2186-1.0145-1.8887-1.1293c-0.6755-0.1136-1.5511-0.0731-2.6382,0.1188L318.2393,514.0404L318.2393,514.0404z
		 M319.9729,523.8726l1.2884,7.306c0.1536,0.872,0.3949,1.4415,0.7163,1.6988c0.328,0.2617,0.8325,0.33,1.5208,0.2087
		c1.3654-0.241,2.3621-0.8552,2.9821-1.853c0.6265-0.9932,0.8181-2.1478,0.5845-3.4716c-0.2296-1.3025-0.8637-2.3819-1.9041-3.2437
		c-1.0392-0.8566-2.6198-1.0979-4.7415-0.7237L319.9729,523.8726L319.9729,523.8726z M339.3786,509.4336l2.3409,8.7369
		l0.3918-0.1052c1.0046-0.269,1.7192-0.6097,2.1433-1.0267c0.4238-0.4173,0.7033-1.0222,0.8461-1.8281
		c0.1378-0.8045,0.1202-1.8599-0.0598-3.17l0.5771-0.1545l2.8919,10.7926l-0.5771,0.1545c-0.5001-1.2685-1.0335-2.2079-1.597-2.8074
		c-0.5703-0.6038-1.1393-0.9539-1.7073-1.0557c-0.5734-0.1003-1.3113-0.0297-2.2178,0.2132l-0.3914,0.1049l1.7875,6.6713
		c0.2611,0.9737,0.5649,1.5936,0.9125,1.8595c0.3458,0.2606,0.9465,0.2764,1.8119,0.0445l2.0245-0.5425
		c3.4002-0.9111,5.1732-3.3185,5.3082-7.2252l0.5306-0.1423l0.7858,6.8071l-18.4425,4.9417l-0.1491-0.5565l0.8192-0.2194
		c0.6696-0.1794,1.1781-0.4868,1.5174-0.9091c0.3385-0.4275,0.3413-1.262,0.0074-2.5087l-3.8747-14.4603
		c-0.3285-1.2262-0.7549-1.9511-1.2708-2.1665c-0.5173-0.2203-1.1024-0.2401-1.7668-0.0621l-0.8192,0.2197l-0.1491-0.5565
		l17.9016-4.7968l1.6095,6.0066l-0.5411,0.1451c-0.5394-1.1696-1.2067-2.0727-1.9911-2.7131
		c-0.7832-0.6346-1.5843-0.9669-2.4035-0.9958c-0.8144-0.0303-1.9369,0.149-3.3639,0.5315L339.3786,509.4336L339.3786,509.4336z
		 M371.405,509.4787l-8.7083,3.3428l2.5535,6.6518c0.3651,0.9513,0.7849,1.584,1.2532,1.8956
		c0.4728,0.3098,1.1327,0.3021,1.9891-0.0267l0.5425-0.2084l0.2067,0.5378l-10.1823,3.9087l-0.2064-0.5377l0.4632-0.1777
		c0.8167-0.3135,1.311-0.7374,1.4825-1.272c0.167-0.5326,0.0618-1.2977-0.3186-2.2883l-5.3648-13.9762
		c-0.3727-0.9711-0.8014-1.6118-1.2796-1.9199c-0.483-0.3058-1.1429-0.2982-1.9794,0.0229l-0.4632,0.1777l-0.2064-0.5378
		l10.1823-3.9083l0.2064,0.5377l-0.5425,0.208c-0.8266,0.3176-1.3187,0.7467-1.4839,1.2839
		c-0.1599,0.5357-0.0476,1.304,0.3365,2.3046l2.3298,6.0695l8.708-3.3429l-2.3298-6.0692c-0.3728-0.9712-0.8014-1.6118-1.2796-1.92
		c-0.483-0.3058-1.1429-0.2982-1.9792,0.023l-0.4629,0.1777l-0.2067-0.5377l10.1078-3.88l0.2064,0.5377l-0.483,0.1855
		c-0.8167,0.3135-1.3091,0.7427-1.474,1.2801c-0.1649,0.5374-0.0578,1.3079,0.3263,2.3082l5.3649,13.9765
		c0.3651,0.9509,0.7852,1.5837,1.2634,1.8915c0.4731,0.3096,1.1327,0.3019,1.9792-0.0229l0.483-0.1853l0.2064,0.5377
		l-10.1075,3.8801l-0.2064-0.538l0.4632-0.1777c0.8163-0.3132,1.3107-0.7372,1.4825-1.2717
		c0.167-0.5326,0.0615-1.2977-0.3189-2.2883L371.405,509.4787L371.405,509.4787z M395.7187,498.3056l-8.3109,4.2347l3.2346,6.3484
		c0.4626,0.908,0.9465,1.4933,1.4445,1.7544c0.5029,0.2585,1.1582,0.182,1.9755-0.2347l0.5179-0.2636l0.2614,0.5131l-9.7177,4.9514
		l-0.2617-0.513l0.4422-0.2253c0.7793-0.3972,1.2266-0.8702,1.3416-1.4199c0.1103-0.5472-0.0742-1.2969-0.5562-2.2425
		l-6.7966-13.339c-0.472-0.9267-0.9655-1.5191-1.4729-1.7754c-0.5125-0.2537-1.1679-0.1771-1.9664,0.2296l-0.4419,0.225
		l-0.2614-0.513l9.7177-4.9516l0.2616,0.5133l-0.5179,0.2637c-0.7892,0.4022-1.2336,0.8802-1.3416,1.4318
		c-0.1029,0.5496,0.0887,1.3019,0.5754,2.2569l2.9514,5.7926l8.3112-4.2347l-2.9517-5.7926
		c-0.472-0.9266-0.9655-1.5191-1.4732-1.7756c-0.5122-0.2537-1.1676-0.1768-1.9659,0.2297l-0.4419,0.2253l-0.2617-0.5134
		l9.6466-4.9153l0.2616,0.5133l-0.4609,0.235c-0.7795,0.3972-1.2243,0.8753-1.3323,1.427
		c-0.1077,0.5518,0.0791,1.3068,0.5658,2.2615l6.7966,13.339c0.4623,0.9076,0.9465,1.493,1.4539,1.7493
		c0.5029,0.2585,1.1582,0.1819,1.9661-0.2297l0.4609-0.235l0.2616,0.5134l-9.6466,4.915l-0.2616-0.5131l0.4419-0.2253
		c0.7792-0.3969,1.2265-0.8702,1.3416-1.4196c0.1105-0.5471-0.0743-1.2971-0.5562-2.2427L395.7187,498.3056L395.7187,498.3056z
		 M435.493,485.5826l0.3053,0.4887l-9.5432,5.963l-0.3053-0.4884l0.6103-0.3813c0.7512-0.4694,1.1523-0.9841,1.2118-1.5435
		c0.055-0.5562-0.1958-1.2798-0.7526-2.171l-7.9333-12.6958c-0.5454-0.8728-1.0814-1.4182-1.6075-1.6365
		c-0.5312-0.2154-1.1801-0.0867-1.9491,0.3937l-0.6103,0.3816l-0.3053-0.4888l9.5431-5.9629l0.3053,0.4884l-0.597,0.373
		c-0.7506,0.4691-1.1565,0.9869-1.216,1.546c-0.0641,0.5621,0.1882,1.2974,0.7563,2.2065l7.933,12.6958
		c0.54,0.8641,1.0775,1.402,1.6007,1.616c0.5281,0.2109,1.1789,0.0746,1.9568-0.4116L435.493,485.5826L435.493,485.5826z
		 M398.0102,483.7794l9.5706-5.9803l0.3053,0.4885c-1.0448,0.6528-1.6583,1.2313-1.8374,1.7396
		c-0.1823,0.5035-0.0014,1.1957,0.5468,2.073l3.6261,5.8031l2.9038-1.8145c1.696-1.0599,3.1229-1.6747,4.2809-1.8448
		c1.1619-0.1729,2.2961-0.0388,3.4169,0.4057c1.1202,0.4441,1.9811,1.1576,2.5945,2.1392c0.7943,1.2711,0.9521,2.7819,0.4771,4.538
		c-0.4779,1.7513-2.0179,3.4433-4.623,5.071l-9.6202,6.0114l-0.3053-0.4885c1.1038-0.6896,1.7249-1.2852,1.855-1.7818
		c0.1327-0.4919-0.1128-1.2374-0.7376-2.2368l-8.0461-12.8767c-0.6302-1.0085-1.1956-1.5607-1.7019-1.6472
		c-0.5051-0.0933-1.3056,0.2057-2.4001,0.8898L398.0102,483.7794L398.0102,483.7794z M410.9424,489.0564l3.575,5.7214
		c0.5652,0.9045,1.1064,1.4281,1.6223,1.5903c0.5179,0.1539,1.0775,0.0433,1.688-0.3382c0.8731-0.5457,1.4335-1.3799,1.6736-2.5049
		c0.2478-1.1232,0.0077-2.2624-0.716-3.4203c-0.7599-1.2167-1.7351-2.0223-2.9205-2.4197c-1.1855-0.3977-2.444-0.1772-3.769,0.6508
		L410.9424,489.0564L410.9424,489.0564z M432.5753,457.0348c-1.6832,1.4125-3.0688,2.1924-4.1635,2.3312
		c-1.0913,0.1431-1.8924-0.0898-2.4001-0.6945c-0.2741-0.3268-0.3818-0.6962-0.3314-1.1005
		c0.0547-0.4078,0.2475-0.7505,0.5825-1.0317c0.6452-0.5414,1.4976-0.5466,2.545-0.012c1.0239,0.54,2.0035,0.4213,2.935-0.3602
		c0.5924-0.4973,0.9465-0.9545,1.074-1.3749c0.1239-0.4169,0.1006-0.9756-0.0774-1.6688c-0.2855-1.1038-0.1157-1.9219,0.5136-2.45
		c0.3348-0.2809,0.7135-0.4105,1.1205-0.3901c0.4144,0.0213,0.7758,0.2192,1.0911,0.595c0.5281,0.6293,0.5871,1.4709,0.1808,2.522
		C435.235,454.455,434.2097,455.6637,432.5753,457.0348L432.5753,457.0348z M423.6932,466.6531l8.416-7.062l0.3702,0.441
		c-0.8212,0.6891-1.2867,1.296-1.3929,1.8165c-0.1094,0.5167,0.2149,1.2266,0.9723,2.1293l8.7078,10.3771l-2.1047-16.9203
		c-0.5375-0.5238-1.0536-0.7659-1.5534-0.7225c-0.4997,0.0433-1.1356,0.3889-1.8998,1.03l-0.3702-0.4413l8.3917-7.0416
		l0.3705,0.4413l-0.2656,0.2228c-0.7642,0.6412-1.1897,1.2209-1.2759,1.7323c-0.087,0.5184,0.1593,1.1191,0.7353,1.8054
		l10.2433,12.2076c0.4768,0.5681,0.8895,0.9105,1.2458,1.0367c0.3569,0.1182,0.6964,0.1326,1.0236,0.0253
		c0.3308-0.1038,0.8849-0.4644,1.6736-1.0843l0.3702,0.4413l-8.3917,7.0416l-0.3705-0.441c0.8459-0.7098,1.2986-1.3403,1.3609-1.88
		c0.0624-0.5394-0.2594-1.2305-0.9623-2.0678l-8.6973-10.3652l2.0945,16.9084c0.5479,0.5283,1.076,0.7679,1.5757,0.7245
		c0.4998-0.0433,1.1313-0.3855,1.8995-1.0302l0.3702,0.4414l-8.416,7.062l-0.3705-0.4414l0.2656-0.2228
		c0.7886-0.6616,1.2189-1.2524,1.2895-1.7572c0.0672-0.509-0.1797-1.1024-0.7489-1.7804l-10.3428-12.3262
		c-0.5519-0.6579-1.0783-1.0028-1.5851-1.0507c-0.5074-0.0409-1.1715,0.2795-1.9927,0.9685l-0.2656,0.2231L423.6932,466.6531
		L423.6932,466.6531z"/>
	<path class="st4" d="M447.0643,446.4259l6.7986-7.8208l0.4346,0.3779l-0.4023,0.4626c-0.8047,0.9261-0.9774,1.5882-0.5227,1.9837
		c0.2293,0.1993,0.6367,0.3486,1.2294,0.447l11.5767,2.0146l-3.795-9.3484c-0.3053-0.7461-0.6171-1.2575-0.9391-1.5373
		c-0.7407-0.644-1.6778-0.3138-2.8117,0.9905l-0.3498,0.4025l-0.4348-0.3778l4.6537-5.3535l0.4348,0.3779
		c-0.379,0.6885-0.5527,1.2866-0.5289,1.7875c0.0312,0.5005,0.2775,1.3226,0.7401,2.4735l6.0851,14.7946
		c0.487,1.1792,0.8391,2.376,1.0477,3.5747c0.2169,1.2133-0.1168,2.3292-1.0057,3.3517c-0.6962,0.8011-1.4448,1.2881-2.249,1.4653
		c-0.7968,0.1768-1.5494-0.0465-2.2578-0.6622c-0.5031-0.4374-0.7988-0.9349-0.8827-1.4885c-0.0805-0.5576,0.0907-1.08,0.5139-1.567
		c0.3954-0.455,0.788-0.6789,1.1699-0.6789c0.3861,0.0031,0.8683,0.1961,1.4505,0.5752c0.8158,0.5326,1.4306,0.5652,1.84,0.0941
		c0.2483-0.2858,0.3271-0.7256,0.2325-1.3241c-0.095-0.5983-0.356-1.3623-0.7792-2.2819l-17.7696-3.0444
		c-0.9184-0.1627-1.5534-0.2126-1.8929-0.1474c-0.3427,0.0695-0.7277,0.3495-1.1512,0.8368L447.0643,446.4259L447.0643,446.4259z
		 M482.6535,420.9529l-5.4828,7.5464l5.7645,4.1879c0.824,0.599,1.5211,0.9009,2.0832,0.9071
		c0.5656,0.0023,1.1146-0.3634,1.6537-1.1055l0.3416-0.4703l0.466,0.3387l-6.4106,8.8234l-0.466-0.3384l0.2914-0.4014
		c0.5142-0.7078,0.6979-1.3323,0.551-1.874c-0.1502-0.5377-0.6551-1.1223-1.5137-1.7459l-12.1116-8.7996
		c-0.8413-0.6115-1.5497-0.915-2.1186-0.913c-0.5714,0.0065-1.1208,0.3722-1.6475,1.0973l-0.2917,0.4011l-0.466-0.3384
		l6.4108-8.8237l0.466,0.3387l-0.3416,0.47c-0.5204,0.7166-0.6996,1.3442-0.5454,1.8848c0.1576,0.5366,0.6701,1.1197,1.5372,1.7498
		l5.2597,3.8211l5.4828-7.5461l-5.2597-3.8214c-0.8416-0.6115-1.55-0.915-2.1186-0.9131c-0.5717,0.0065-1.1211,0.3722-1.6475,1.097
		l-0.2917,0.4014l-0.4657-0.3387l6.3635-8.7588l0.466,0.3384l-0.3039,0.4184c-0.5142,0.7078-0.6934,1.3359-0.5392,1.8765
		c0.1542,0.5406,0.6636,1.1282,1.5307,1.7583l12.1116,8.7993c0.824,0.599,1.5211,0.9006,2.0897,0.8986
		c0.5655,0.002,1.1146-0.3637,1.6475-1.0973l0.3042-0.4187l0.466,0.3387l-6.3638,8.7588l-0.466-0.3384l0.2914-0.4014
		c0.5142-0.7075,0.6979-1.332,0.5511-1.874c-0.1502-0.5377-0.6554-1.1219-1.514-1.7456L482.6535,420.9529L482.6535,420.9529z
		 M478.3894,407.0841l5.6585-9.4172l0.4935,0.2965c-0.5519,0.919-0.7946,1.6444-0.7257,2.1711
		c0.0646,0.5241,0.6024,1.0896,1.6126,1.6965l11.1407,6.694l-6.5432-14.739c-0.8047-0.4836-1.4621-0.6732-1.9678-0.5663
		c-0.5088,0.1114-1.0689,0.6707-1.6818,1.69l-0.4935-0.2965l5.6421-9.39l0.4938,0.2965l-0.1786,0.2973
		c-0.5139,0.8549-0.7274,1.5415-0.6426,2.0532c0.0867,0.5187,0.5153,1.0063,1.2832,1.4678l13.6596,8.2074
		c0.6358,0.3821,1.1376,0.5714,1.5154,0.5746c0.3759-0.0042,0.7015-0.1012,0.9762-0.3093c0.2789-0.2058,0.6854-0.7271,1.2294-1.5698
		l0.4938,0.2965l-5.6424,9.39l-0.4935-0.2965c0.5686-0.9465,0.7914-1.69,0.6747-2.2203c-0.1168-0.5307-0.646-1.0792-1.5832-1.6421
		l-11.1957-6.7272l6.5296,14.7311c0.887,0.5329,1.5874,0.7237,2.1013,0.572c0.5142-0.1514,1.0644-0.7044,1.6384-1.6597
		l0.4935,0.2965l-5.6582,9.4173l-0.4938-0.2965l0.1786-0.2974c0.5301-0.8821,0.7447-1.5809,0.6469-2.0812
		c-0.1021-0.5031-0.529-0.9839-1.2878-1.4397l-13.7922-8.2874c-0.7359-0.4422-1.3459-0.597-1.8409-0.4773
		c-0.4932,0.1267-1.0168,0.6457-1.5689,1.5647l-0.1783,0.2971L478.3894,407.0841L478.3894,407.0841z M506.7642,376.3537
		c0.955-1.4553,2.1268-2.5038,3.5141-3.1575c1.3924-0.6511,2.7859-0.6488,4.1828,0.0028c1.1117,0.5182,1.9281,1.3289,2.4429,2.4338
		c0.5122,1.0976,0.7001,2.3094,0.555,3.6304c-0.1431,1.3164-0.5153,2.6198-1.1194,3.9155l-4.9994,10.7209l-0.5219-0.2435
		l0.2773-0.5947c0.3787-0.8121,0.4371-1.4672,0.1777-1.959c-0.2566-0.4964-0.8612-0.9666-1.8136-1.4108l-13.5681-6.3269
		c-1.1503-0.5363-1.9794-0.6755-2.476-0.419c-0.5014,0.2549-0.8949,0.6951-1.1857,1.3184l-0.1916,0.411l-0.5222-0.2432
		l4.5306-9.7157c1.1721-2.5138,2.4868-4.1721,3.9535-4.9828c1.4621-0.813,2.9228-0.879,4.3775-0.2004
		c1.2087,0.5635,2.0143,1.41,2.4128,2.5489C507.1914,373.2164,507.1874,374.6385,506.7642,376.3537L506.7642,376.3537z
		 M495.9078,377.7524l7.9997,3.7304l0.1916-0.4107c0.7302-1.5662,0.9445-2.8962,0.6378-3.9926
		c-0.3067-1.0961-1.1296-1.9568-2.4684-2.5809c-0.9184-0.4283-1.8057-0.5831-2.6592-0.4691
		c-0.8603,0.1168-1.5299,0.4164-2.0083,0.8997c-0.4805,0.4879-0.9493,1.2285-1.4159,2.2289L495.9078,377.7524L495.9078,377.7524z
		 M504.9562,381.9717l6.7235,3.1354c0.8028,0.3741,1.4073,0.5031,1.8026,0.3875c0.4025-0.1185,0.7478-0.493,1.0432-1.1262
		c0.5859-1.2566,0.6542-2.4253,0.1927-3.5053c-0.4544-1.0828-1.2903-1.902-2.5084-2.4701c-1.1987-0.559-2.4468-0.6588-3.7494-0.3011
		c-1.298,0.36-2.4021,1.5163-3.3126,3.4691L504.9562,381.9717L504.9562,381.9717z M503.959,358.2659l8.5522,2.9446l0.1321-0.3832
		c0.3387-0.9833,0.4561-1.7663,0.3472-2.3511c-0.1088-0.5845-0.4542-1.1545-1.0423-1.7238
		c-0.5899-0.5641-1.4745-1.1395-2.6615-1.7229l0.1945-0.565l10.5647,3.6377l-0.1948,0.565
		c-1.3311-0.2951-2.408-0.3782-3.2205-0.2461c-0.8195,0.1352-1.4275,0.411-1.8297,0.8252
		c-0.4039,0.4196-0.7577,1.0704-1.0633,1.9579l-0.1321,0.3833l6.5305,2.2484c0.953,0.3283,1.637,0.423,2.0514,0.2835
		c0.4096-0.1411,0.7586-0.6302,1.0503-1.4774l0.6823-1.9817c1.146-3.3282,0.1417-6.1444-3.0217-8.441l0.1788-0.5193l6.0828,3.155
		l-6.2161,18.053l-0.5448-0.1877l0.2761-0.8019c0.2256-0.6554,0.2554-1.2489,0.095-1.7663
		c-0.1653-0.5196-0.8555-0.9887-2.0758-1.4088l-14.1548-4.8739c-1.2002-0.4133-2.0395-0.4651-2.5067-0.1582
		c-0.4717,0.3059-0.8155,0.7798-1.0395,1.4301l-0.2761,0.8019l-0.5445-0.1874l6.0338-17.5235l5.8799,2.0245l-0.1825,0.5298
		c-1.2714-0.2067-2.3933-0.1588-3.3628,0.1335c-0.9641,0.2943-1.6875,0.773-2.1696,1.4358
		c-0.4802,0.6582-0.9592,1.6891-1.4403,3.0861L503.959,358.2659L503.959,358.2659z M520.4946,340.7169l6.3544,1.5843
		c0.9887,0.2463,1.7478,0.2653,2.2728,0.0555c0.5238-0.2047,0.8946-0.7444,1.1115-1.6137l0.1471-0.5899l0.5587,0.1392
		l-2.7028,10.8414l-0.559-0.1392l0.1896-0.7608c0.2142-0.8589,0.1454-1.5083-0.2004-1.952
		c-0.3467-0.4382-1.0301-0.7843-2.0494-1.0386l-14.5261-3.6216c-1.0092-0.2517-1.7785-0.2733-2.3037-0.0632
		c-0.5264,0.2148-0.8986,0.7599-1.118,1.6396l-0.1896,0.7605l-0.5587-0.1392l2.7029-10.8414
		c0.7483-3.0013,1.8663-5.0366,3.348-6.1075c1.4868-1.0692,2.9948-1.408,4.5317-1.0247c1.5159,0.3781,2.7028,1.3719,3.5665,2.9781
		c0.8575,1.6101,0.8552,4.1542-0.0116,7.6317L520.4946,340.7169L520.4946,340.7169z M510.005,338.1013l9.3509,2.3315l0.4011-1.6092
		c0.373-1.4958,0.2741-2.7076-0.2957-3.6411c-0.5763-0.9295-1.6219-1.586-3.1382-1.9642c-1.4952-0.3727-2.745-0.3656-3.7508,0.0321
		c-1.0051,0.3926-1.7249,1.4717-2.1662,3.2417L510.005,338.1013L510.005,338.1013z M515.3194,303.678l7.2247,1.4043l-0.1193,0.6126
		c-2.0636-0.0318-3.7038,0.5241-4.9258,1.6667c-1.2163,1.1435-1.9689,2.4426-2.2507,3.8925
		c-0.2463,1.2668-0.108,2.4837,0.4203,3.6513c0.5241,1.1611,1.4346,2.2076,2.7252,3.1428c1.285,0.9346,3.0898,1.6276,5.4091,2.0783
		c3.4083,0.6628,6.0316,0.4989,7.8766-0.4952c1.8397-0.9952,2.9511-2.4636,3.3287-4.4059c0.2806-1.4448,0.1465-2.8783-0.3948-4.3146
		c-0.5423-1.4309-1.3102-2.5963-2.3024-3.5008l1.8533,0.3603c1.9335,2.6034,2.5903,5.5128,1.9667,8.722
		c-0.6899,3.5496-2.3111,6.1305-4.864,7.7477c-2.5515,1.6121-5.2943,2.1384-8.2156,1.5706
		c-3.2199-0.6259-5.7433-2.2901-7.5725-4.9819c-1.8283-2.6971-2.4514-5.5292-1.8723-8.5082
		c0.288-1.4814,0.9592-3.0353,2.0186-4.6551c0.4493-0.6624,0.7092-1.188,0.7823-1.5647c0.1588-0.8167-0.2452-1.4221-1.2076-1.8102
		L515.3194,303.678L515.3194,303.678z M515.2531,302.1646l0.9576-10.9446l0.5737,0.0502c-0.0933,1.0681,0.0065,1.826,0.2996,2.2691
		c0.2877,0.4431,1.0187,0.7155,2.1929,0.8184l12.9478,1.1327l-12.3423-10.3791c-0.9352-0.0819-1.6093,0.0357-2.0169,0.3535
		c-0.4084,0.3232-0.667,1.0715-0.7704,2.2564l-0.574-0.0502l0.955-10.9131l0.5737,0.0501l-0.0303,0.3453
		c-0.0867,0.9938,0.0224,1.7044,0.3229,2.1271c0.305,0.4281,0.9039,0.6786,1.7966,0.7569l15.8752,1.3887
		c0.7387,0.0646,1.273,0.015,1.6137-0.1479c0.3362-0.1687,0.5865-0.3986,0.7419-0.7058c0.1607-0.3073,0.2977-0.9539,0.4167-1.95
		l0.574,0.0502l-0.955,10.9131l-0.5737-0.0502c0.0964-1.0998-0.0295-1.8658-0.3668-2.2915
		c-0.3376-0.4255-1.0537-0.6866-2.143-0.7818l-13.0114-1.1384l12.3262,10.3777c1.031,0.0904,1.7442-0.0454,2.1396-0.4068
		c0.396-0.3615,0.6478-1.0999,0.745-2.2102l0.5737,0.0501l-0.9575,10.9449l-0.5737-0.0502l0.0301-0.3456
		c0.0898-1.0253-0.0239-1.7473-0.3308-2.154c-0.3124-0.4076-0.9066-0.6526-1.7884-0.7296l-16.0294-1.4023
		c-0.8555-0.0749-1.4718,0.0533-1.8641,0.3778c-0.3875,0.33-0.6307,1.0258-0.724,2.094l-0.0303,0.3453L515.2531,302.1646
		L515.2531,302.1646z M516.2166,256.3198l5.7965-0.1012l0.0103,0.5919c-3.0427,0.4691-4.546,2.0583-4.4989,4.7673l0.036,2.0583
		l17.2667-0.3013c1.0185-0.0179,1.7569-0.1962,2.2096-0.5346c0.4528-0.3442,0.6713-0.9666,0.6554-1.8732l-0.0139-0.7946
		l0.576-0.0099l0.1998,11.4489l-0.576,0.0099l-0.0148-0.8424c-0.0122-0.6985-0.1871-1.2612-0.5148-1.6875
		c-0.3328-0.4261-1.1418-0.6307-2.4324-0.608l-17.2664,0.3013l0.0388,2.2343c0.0153,0.8691,0.1715,1.5758,0.4694,2.1362
		c0.2977,0.5547,0.8399,1.0522,1.6263,1.4865c0.7917,0.4343,1.6443,0.6914,2.563,0.7659l0.011,0.64l-5.7963,0.1012
		L516.2166,256.3198L516.2166,256.3198z M515.8058,247.1673l8.9776-1.1024l-0.0493-0.4023
		c-0.1267-1.0324-0.3645-1.7878-0.7186-2.2654s-0.9142-0.8388-1.6926-1.0925c-0.7772-0.2483-1.8246-0.3779-3.1473-0.3818
		l-0.0728-0.593l11.0903-1.3617l0.0726,0.593c-1.3255,0.3186-2.3301,0.716-3.0025,1.1906c-0.6772,0.4807-1.103,0.9955-1.283,1.544
		c-0.1789,0.5539-0.2117,1.2943-0.0972,2.2258l0.0493,0.4022l6.855-0.8416c1.0007-0.1227,1.6569-0.3376,1.9684-0.6446
		c0.3062-0.3064,0.4053-0.8989,0.2962-1.7884l-0.2554-2.08c-0.4289-3.494-2.5665-5.5848-6.4162-6.2623l-0.067-0.5451l6.8502,0.1693
		l2.3267,18.9507l-0.5715,0.0703l-0.1035-0.8419c-0.0845-0.688-0.318-1.2345-0.6891-1.6294
		c-0.3762-0.3943-1.2021-0.5134-2.4832-0.356l-14.8589,1.8244c-1.2601,0.1548-2.037,0.4759-2.3221,0.9567
		c-0.2903,0.4819-0.3915,1.0584-0.3076,1.741l0.1035,0.8419l-0.5717,0.0703l-2.2586-18.3951l6.1724-0.7577l0.0681,0.5559
		c-1.233,0.3716-2.2203,0.9065-2.9636,1.5942c-0.7375,0.6871-1.1777,1.4343-1.3206,2.2416c-0.1432,0.8019-0.1219,1.9386,0.058,3.405
		L515.8058,247.1673L515.8058,247.1673z M508.3113,215.6424l5.6489-1.3039l0.1332,0.5768c-2.8788,1.0913-4.019,2.9586-3.4092,5.5984
		l0.4629,2.0058l16.8268-3.8849c0.9927-0.229,1.6775-0.557,2.0503-0.9822c0.371-0.4305,0.4555-1.0848,0.2514-1.9684l-0.1786-0.7741
		l0.5613-0.1298l2.5756,11.1572l-0.561,0.1295l-0.1896-0.8212c-0.157-0.6803-0.4453-1.1943-0.8543-1.5432
		c-0.4144-0.3478-1.2481-0.3796-2.5059-0.0893l-16.8264,3.8849l0.5026,2.1773c0.1956,0.847,0.4955,1.5058,0.9034,1.9919
		c0.4065,0.4808,1.0403,0.8546,1.8998,1.1157c0.8646,0.2605,1.7521,0.3345,2.6663,0.2166l0.1439,0.6236l-5.6488,1.3042
		L508.3113,215.6424L508.3113,215.6424z"/>
	<path class="st4" d="M59.2765,136.4438l0.504,0.2792c-0.4139,0.7464-0.5726,1.451-0.4669,2.1073
		c0.0986,0.6582,0.7044,1.2929,1.8144,1.9083l7.4775,4.1448c1.6183,0.8969,2.8253,1.6574,3.6125,2.283
		c0.7855,0.6182,1.4224,1.4712,1.8992,2.5588c0.481,1.0899,0.6568,2.2907,0.5295,3.5986c-0.1344,1.3096-0.6219,2.7283-1.4701,4.2582
		c-0.8147,1.4695-1.6988,2.6135-2.6572,3.4299c-0.9615,0.8209-1.9276,1.3646-2.8939,1.6339
		c-0.959,0.2673-1.8802,0.3118-2.7578,0.1239c-0.8702-0.1896-1.938-0.6293-3.1927-1.3246l-9.1984-5.099
		c-0.7744-0.4292-1.3462-0.6851-1.7175-0.7628c-0.3736-0.085-0.7486-0.0247-1.127,0.174c-0.3813,0.2035-0.7761,0.6738-1.1846,1.4105
		l-0.1964,0.3546l-0.5038-0.2792l5.2798-9.525l0.5037,0.2792l-0.1732,0.3124c-0.3051,0.5502-0.4357,1.0389-0.4043,1.4774
		c0.034,0.4334,0.1721,0.7784,0.4238,1.0395c0.2495,0.2545,0.7741,0.606,1.5764,1.0508l9.5672,5.3033
		c1.4553,0.8065,2.5518,1.2923,3.2758,1.4496c0.7285,0.1599,1.5494-0.0009,2.4673-0.4799c0.9159-0.4864,1.6982-1.3147,2.3499-2.4905
		c0.5791-1.0446,0.8853-2.0701,0.9113-3.0742c0.0261-1.0037-0.1678-1.8978-0.576-2.679c-0.413-0.7838-0.9674-1.4448-1.6606-1.9876
		c-0.6905-0.5474-1.8184-1.2518-3.3766-2.1152l-7.3372-4.0672c-0.9657-0.5355-1.7377-0.7376-2.3207-0.6097
		c-0.5859,0.1327-1.1656,0.6282-1.747,1.5012l-0.5038-0.2792L59.2765,136.4438L59.2765,136.4438z M84.5533,126.3074l5.6959,4.9388
		l-11.0676,15.806l-0.472-0.3302l0.6273-0.8958c0.5077-0.7251,0.6761-1.3561,0.5091-1.8896
		c-0.1636-0.5377-0.6775-1.1058-1.5381-1.7084l-12.2632-8.587c-0.843-0.5902-1.5495-0.8833-2.1223-0.8742
		c-0.5698,0.0048-1.1169,0.377-1.6371,1.1197l-0.627,0.8958l-0.472-0.3305l7.1246-10.1747l0.4717,0.3302l-0.8594,1.2277
		c-0.508,0.7251-0.6789,1.3604-0.5122,1.8938c0.1638,0.538,0.6862,1.112,1.5645,1.7269l12.0316,8.4246
		c0.843,0.5905,1.4825,0.8954,1.9185,0.9142c0.4317,0.0156,0.9077-0.3478,1.4278-1.0905l1.2175-1.7388
		c0.6576-0.9391,1.0732-1.8397,1.2543-2.7025c0.1735-0.8617,0.0672-1.8349-0.3195-2.9188c-0.3909-1.0879-1.152-2.2788-2.2827-3.5648
		L84.5533,126.3074L84.5533,126.3074z M91.9353,113.7213l-3.3789-8.2032c-0.347-0.8478-0.7002-1.4227-1.0596-1.7246
		c-0.7027-0.5896-1.6004-0.2497-2.6864,1.0111l-0.4413-0.3702l4.1893-4.9924l0.4411,0.3702
		c-0.3702,0.4414-0.548,0.9604-0.5295,1.5608c0.0142,0.5967,0.358,1.7138,1.0355,3.3542l3.7463,9.2007l4.2735,3.5858
		c0.7804,0.6548,1.4545,1.0046,2.0149,1.0502c0.5641,0.0414,1.1339-0.2809,1.7167-0.9757l0.6959-0.8291l0.4414,0.3702l-7.6552,9.123
		l-0.4411-0.3702l0.6548-0.7807c0.5689-0.678,0.7917-1.2917,0.6718-1.838c-0.116-0.5499-0.5783-1.1605-1.3834-1.836l-3.5665-2.9928
		l-11.6714-2.4276c-1.4462-0.301-2.4032-0.3801-2.8715-0.2373c-0.4683,0.1434-0.9167,0.4703-1.345,0.9808l-0.4413-0.3702
		l6.5685-7.8279l0.441,0.3702c-0.5306,0.6826-0.8368,1.1639-0.9178,1.4508c-0.0851,0.284,0.0215,0.5471,0.3076,0.7872
		c0.2327,0.1953,0.6673,0.358,1.3031,0.4878L91.9353,113.7213L91.9353,113.7213z M110.6511,100.2853l-5.0448,4.8719l1.0038,2.575
		c0.2381,0.6077,0.4796,1.0341,0.7169,1.2796c0.4113,0.4261,0.8609,0.5848,1.3346,0.4683c0.4771-0.112,1.0993-0.5199,1.8618-1.2268
		l0.4002,0.4141l-5.0681,4.894l-0.4-0.4141c0.9831-0.9938,0.9142-2.8925-0.1987-5.6954l-6.9868-17.623l0.2262-0.2185l18.3115,8.0294
		c2.1484,0.9502,3.6599,1.0103,4.5307,0.1695l0.4002,0.4141l-7.3851,7.1317l-0.4002-0.4141l0.28-0.2704
		c1.0435-1.0077,1.3022-1.7765,0.7909-2.306c-0.1406-0.1457-0.428-0.3206-0.8773-0.5244L110.6511,100.2853L110.6511,100.2853z
		 M109.5096,99.7791l-7.3027-3.2241l2.9407,7.4364L109.5096,99.7791L109.5096,99.7791z M113.6561,76.5574l18.7234,3.155
		l-6.3134-7.7964c-0.8861-1.0942-1.6571-1.6985-2.3199-1.8137c-0.6554-0.1145-1.4922,0.2336-2.5033,1.0525l-0.3625-0.4476
		l5.5746-4.5142l0.3625,0.4476c-0.5527,0.4615-0.9014,0.9289-1.057,1.3983c-0.1562,0.4762-0.1469,0.9286,0.0207,1.3558
		c0.1673,0.4269,0.5556,1.0253,1.1798,1.7963l11.3882,14.0632l-0.4348,0.3524l-24.0852-4.0218l9.0352,11.1577
		c0.517,0.6381,1.0043,1.0536,1.4593,1.2339c0.4552,0.1806,0.8974,0.1931,1.3297,0.0488c0.4289-0.1482,1.0332-0.5207,1.8048-1.1185
		l0.3625,0.4476l-5.9976,4.8569l-0.3622-0.4479c0.8612-0.7245,1.3309-1.4071,1.4137-2.0509
		c0.083-0.6434-0.2214-1.3921-0.9094-2.2416l-9.8612-12.1774c-0.2693-0.0357-0.5193-0.0734-0.7475-0.1012
		c-1.3306-0.2194-2.3304-0.0896-2.9956,0.3943l-0.3626-0.4479L113.6561,76.5574L113.6561,76.5574z M155.3308,60.7123
		c1.7484,2.6923,2.3077,5.5409,1.6858,8.5394s-2.4315,5.4709-5.4284,7.4171c-1.8249,1.1849-3.6941,1.8902-5.5964,2.1144
		c-1.902,0.2242-3.8094-0.0887-5.7226-0.9386c-1.9128-0.8501-3.5328-2.2972-4.8603-4.3413c-1.345-2.071-2.0016-4.1689-1.9672-6.29
		c0.03-2.118,0.5706-4.0079,1.62-5.6625c1.0497-1.6543,2.3867-3.0127,4.0107-4.0669c2.8893-1.8765,5.8572-2.5256,8.9019-1.9403
		C151.0161,56.1247,153.4687,57.845,155.3308,60.7123L155.3308,60.7123z M150.6289,63.95c-1.8474-2.8446-3.742-4.7242-5.6852-5.631
		c-1.9431-0.9063-3.6714-0.8649-5.1922,0.1227c-1.5386,0.9992-2.2969,2.5534-2.2796,4.6661
		c0.0173,2.1126,0.9156,4.5436,2.7048,7.2989c1.6557,2.5498,3.4642,4.3449,5.4176,5.385c1.9536,1.0398,3.7389,1.0375,5.3447-0.0051
		c1.5744-1.0225,2.3374-2.5994,2.2938-4.733C153.1889,68.92,152.3195,66.5533,150.6289,63.95L150.6289,63.95z M171.6504,40.0766
		l0.2704,0.5086c-0.5635,0.3603-0.9567,0.9499-1.1772,1.762c-0.2253,0.8141-0.2095,2.4914,0.0499,5.0349l1.7694,17.6757
		l-0.4995,0.2653l-16.0287-13.5484c-0.5142-0.4335-1.0525-0.7756-1.6124-1.0336c-0.565-0.2554-1.1911-0.206-1.8836,0.15
		l-0.2704-0.5088l8.6363-4.5918l0.2704,0.5085c-1.2713,0.676-1.7342,1.3391-1.3938,1.9794
		c0.1477,0.2778,0.4102,0.5669,0.7855,0.8753l10.0919,8.5626l-1.2118-11.992c-0.0689-0.7546-0.2047-1.3167-0.4051-1.6931
		c-0.5131-0.9655-1.4897-1.0869-2.9316-0.3564l-0.2704-0.5085L171.6504,40.0766L171.6504,40.0766z M189.0225,32.6663l2.8236,6.5613
		l-0.5686,0.2299c-0.8169-1.3671-2.0988-2.3332-3.829-2.8996c-1.7371-0.5695-3.4968-0.4969-5.2721,0.2202
		c-1.2064,0.4876-2.0756,1.1837-2.6164,2.0809c-0.5355,0.8955-0.6293,1.7731-0.2818,2.6334
		c0.3158,0.7812,0.9009,1.3042,1.7583,1.5619c0.8595,0.2621,2.3434,0.3186,4.4532,0.1735c2.3071-0.1557,4.0751-0.1794,5.3025-0.0601
		c1.2254,0.1148,2.3575,0.5261,3.3951,1.2285c1.0343,0.7092,1.7966,1.6554,2.2759,2.842c0.7333,1.815,0.6066,3.5801-0.3778,5.301
		c-0.9865,1.7159-2.6354,3.0436-4.955,3.9807c-1.3447,0.5434-3.0175,0.8453-5.0298,0.9048
		c-0.6883,0.019-1.1693,0.0814-1.4363,0.1891c-0.6874,0.2778-1.0361,0.9246-1.04,1.9389l-0.6083,0.2458l-3.0149-7.4622
		l0.5785-0.2336c1.1245,1.8295,2.6045,3.0436,4.4436,3.6522c1.8374,0.6035,3.683,0.5309,5.5374-0.2183
		c1.4043-0.5675,2.4041-1.3108,3.011-2.2289c0.6066-0.9185,0.7095-1.8743,0.3081-2.8684c-0.3938-0.9742-1.1101-1.6223-2.145-1.9346
		c-1.0412-0.2985-2.6705-0.3881-4.8827-0.282c-2.2173,0.1074-3.8838,0.0963-5.0034-0.0264c-1.1166-0.1295-2.12-0.5066-3.0027-1.1393
		c-0.8827-0.6329-1.5443-1.4871-1.982-2.5701c-0.6752-1.6714-0.5896-3.3395,0.2571-5.0165c0.849-1.6716,2.274-2.9143,4.2812-3.7253
		c1.4045-0.5675,3.0248-0.8138,4.8781-0.7402c0.8975,0.0287,1.4913-0.0102,1.7686-0.1219c0.7072-0.2857,0.8461-0.9516,0.4246-1.995
		L189.0225,32.6663L189.0225,32.6663z M207.4273,35.6424l9.735,8.6216c0.9567,0.8407,1.6347,1.3286,2.0291,1.4655
		c0.3994,0.1349,0.9153,0.1145,1.5559-0.0692l0.1588,0.5539l-9.8481,2.8239l-0.1588-0.5539
		c1.2713-0.3645,1.8278-0.8235,1.669-1.3774c-0.1029-0.3589-0.5417-0.8818-1.3161-1.5701l-5.9337-5.2724l-0.4655,1.0267
		l1.5642,5.4547c0.3294,1.1486,0.735,1.8477,1.2172,2.0977c0.4807,0.2452,1.1577,0.2452,2.0291-0.0045l0.159,0.5536l-10.1971,2.924
		l-0.1587-0.5539l0.5845-0.1675c0.851-0.2441,1.3839-0.6296,1.5902-1.1495c0.2061-0.5195,0.1695-1.2857-0.1201-2.2957
		l-4.1264-14.3906c-0.2837-0.9896-0.6536-1.6603-1.0995-2.0149c-0.4507-0.3535-1.1104-0.4088-1.9817-0.1588l-0.5845,0.1676
		l-0.1587-0.5536l10.1968-2.9239l0.1587,0.5536c-0.8612,0.2472-1.4298,0.6043-1.713,1.0684
		c-0.2868,0.4706-0.2574,1.2889,0.0777,2.4576l2.0583,7.1776l3.5433-7.8239c0.6293-1.3845,0.8665-2.3568,0.7064-2.9155
		c-0.2307-0.805-1.0069-1.0153-2.3298-0.6361l-0.2971,0.0854l-0.159-0.5536l7.9313-2.2742l0.1588,0.5536
		c-0.9873,0.3498-1.838,0.9822-2.5506,1.902c-0.7177,0.9215-1.6072,2.5804-2.6626,4.9748L207.4273,35.6424L207.4273,35.6424z
		 M241.4723,19.4931l1.5193,6.9795l-0.6018,0.1171c-0.5411-1.4978-1.6152-2.6906-3.2054-3.5767
		c-1.5965-0.8904-3.3378-1.1551-5.2172-0.79c-1.2776,0.2483-2.2635,0.7662-2.9653,1.5438c-0.6967,0.7766-0.9561,1.6202-0.7793,2.531
		c0.1607,0.8271,0.6356,1.4521,1.4278,1.8686c0.794,0.4215,2.2397,0.7599,4.3384,1.0202c2.2947,0.2874,4.0346,0.6012,5.2166,0.9527
		c1.1812,0.3467,2.2141,0.966,3.0983,1.8539c0.8802,0.8935,1.4476,1.9678,1.6917,3.2241c0.3736,1.9213-0.0876,3.63-1.3822,5.1316
		c-1.2957,1.4958-3.168,2.4845-5.6237,2.9619c-1.4238,0.2769-3.1232,0.254-5.11-0.0715c-0.6792-0.1128-1.1633-0.1434-1.446-0.0884
		c-0.7276,0.1414-1.1934,0.7098-1.3909,1.7047l-0.6437,0.125l-1.5359-7.9001l0.6126-0.119
		c0.7546,2.0103,1.9758,3.4846,3.6649,4.4328c1.6886,0.9434,3.5141,1.224,5.4774,0.8425c1.4868-0.2891,2.6099-0.828,3.3809-1.6132
		c0.7707-0.7858,1.0542-1.7048,0.8498-2.757c-0.2007-1.0316-0.7801-1.8043-1.7365-2.3085c-0.9649-0.4915-2.5472-0.8904-4.739-1.2084
		c-2.1969-0.3174-3.831-0.6463-4.9065-0.9805c-1.0715-0.3405-1.9845-0.902-2.7303-1.6914c-0.7458-0.7897-1.2322-1.7543-1.455-2.901
		c-0.3438-1.7697,0.0581-3.3905,1.2096-4.8753c1.1523-1.4788,2.7881-2.427,4.9133-2.8401c1.4871-0.2891,3.1246-0.2216,4.93,0.2044
		c0.8753,0.1993,1.4655,0.2747,1.7589,0.2177c0.7489-0.1457,1.0125-0.7727,0.7977-1.8774L241.4723,19.4931L241.4723,19.4931z
		 M266.1365,17.5604l0.5051,5.7756l-0.5899,0.0515c-0.6801-3.003-2.3703-4.3914-5.0695-4.1552l-2.0506,0.1791l1.5052,17.2037
		c0.0887,1.0148,0.3181,1.7388,0.6871,2.1668c0.375,0.4277,1.0111,0.6023,1.9145,0.5233l0.7914-0.0692l0.0502,0.5737
		l-11.4069,0.9978l-0.0502-0.5738l0.8396-0.0734c0.6956-0.0609,1.2447-0.2747,1.6472-0.6313
		c0.4019-0.3617,0.5493-1.1832,0.4368-2.4687l-1.5049-17.2038l-2.226,0.1948c-0.8663,0.0759-1.5602,0.2812-2.0985,0.6173
		c-0.5327,0.3357-0.991,0.9114-1.3691,1.726c-0.3782,0.8198-0.5752,1.6886-0.5856,2.6101l-0.6375,0.0558l-0.5054-5.7753
		L266.1365,17.5604L266.1365,17.5604z M281.551,33.24l-7.0089-0.2446l-1.1548,2.5107c-0.2719,0.5935-0.4107,1.0635-0.4226,1.4046
		c-0.0207,0.5919,0.1774,1.0255,0.5902,1.2852c0.4121,0.2656,1.1378,0.4294,2.1761,0.487l-0.0201,0.5757l-7.041-0.2458
		l0.0201-0.5757c1.3977,0.0167,2.7156-1.3516,3.9589-4.0989l7.8233-17.2681l0.3144,0.0108l6.9446,18.7501
		c0.8087,2.2054,1.8153,3.3344,3.0251,3.3766l-0.0198,0.5757l-10.2603-0.3583l0.0201-0.5757l0.3889,0.0135
		c1.45,0.0508,2.1824-0.2973,2.2082-1.0327c0.0071-0.2026-0.0669-0.5306-0.2321-0.9955L281.551,33.24L281.551,33.24z
		 M281.1224,32.067l-2.7536-7.4925l-3.3066,7.2808L281.1224,32.067L281.1224,32.067z M312.93,19.5444l-0.5051,5.7756l-0.5899-0.0516
		c-0.1485-3.0753-1.5718-4.7364-4.271-4.9725l-2.0506-0.1794l-1.5052,17.2035c-0.0887,1.0148,0.0113,1.7676,0.3004,2.2535
		c0.2951,0.4861,0.8912,0.7685,1.7946,0.8476l0.7914,0.0691l-0.0501,0.5737l-11.4069-0.9978l0.0502-0.574l0.8396,0.0735
		c0.6956,0.0609,1.2736-0.0545,1.7317-0.3357c0.4587-0.2863,0.7467-1.0695,0.8592-2.3553l1.5052-17.2035l-2.226-0.1947
		c-0.8663-0.0759-1.5851,0.0057-2.1736,0.2435c-0.5828,0.2381-1.1344,0.7253-1.6483,1.4618
		c-0.5148,0.7418-0.8595,1.563-1.0298,2.469l-0.6375-0.0558l0.5051-5.7753L312.93,19.5444L312.93,19.5444z M323.5627,22.4893
		l-1.726,8.879l0.398,0.0774c1.0208,0.1984,1.8127,0.2058,2.3766,0.0167c0.5638-0.1893,1.0803-0.6106,1.5619-1.2722
		c0.4765-0.6624,0.9232-1.6189,1.3357-2.8752l0.5868,0.1139l-2.1322,10.9681l-0.5865-0.1142
		c0.1069-1.3592,0.0391-2.4372-0.2044-3.2232c-0.248-0.7926-0.6057-1.3567-1.0718-1.6974
		c-0.4717-0.3413-1.1656-0.6012-2.0869-0.7804l-0.398-0.0774l-1.3178,6.7796c-0.1922,0.9896-0.1908,1.6801,0.0048,2.0713
		c0.1967,0.3858,0.7296,0.6633,1.6092,0.8342l2.0574,0.4c3.4555,0.6718,6.1044-0.7149,7.9384-4.1672l0.5392,0.1049l-2.2779,6.4627
		l-18.7421-3.6431l0.1097-0.5655l0.8326,0.1619c0.6803,0.1321,1.2725,0.0788,1.7626-0.152
		c0.4915-0.2358,0.8597-0.9847,1.1061-2.2515l2.8565-14.6956c0.2424-1.2458,0.1769-2.0843-0.1925-2.5039
		c-0.3682-0.4249-0.8853-0.6993-1.5608-0.8305l-0.8326-0.1619l0.11-0.5652l18.1927,3.5362l-1.1866,6.1044l-0.5499-0.1069
		c0.0278-1.2878-0.176-2.3922-0.6004-3.3114c-0.4255-0.9139-1.0001-1.5636-1.7238-1.9489
		c-0.7186-0.3838-1.8062-0.7149-3.2564-0.9967L323.5627,22.4893L323.5627,22.4893z M369.9361,33.7905l-0.1874,0.5445
		c-0.8067-0.2778-1.5284-0.3118-2.1563-0.0935c-0.631,0.2112-1.1509,0.9178-1.5642,2.118l-2.7833,8.0836
		c-0.6024,1.7498-1.1415,3.0702-1.6211,3.954c-0.4723,0.881-1.2019,1.6563-2.1901,2.3148c-0.9898,0.663-2.1421,1.0446-3.452,1.1463
		c-1.313,0.0952-2.795-0.1389-4.449-0.7083c-1.5885-0.5468-2.8687-1.2192-3.839-2.0211c-0.9754-0.8042-1.6787-1.6614-2.1118-2.5662
		c-0.4297-0.898-0.6332-1.7974-0.601-2.6943c0.0357-0.8901,0.2832-2.0179,0.7503-3.3743l3.424-9.944
		c0.2883-0.8371,0.4411-1.4448,0.4533-1.8241c0.0187-0.3827-0.106-0.7416-0.3671-1.0797c-0.2668-0.3399-0.7985-0.6472-1.5951-0.9216
		l-0.3832-0.1318l0.1877-0.5446l10.2971,3.5456l-0.1877,0.5445l-0.3376-0.1162c-0.595-0.2049-1.099-0.2486-1.5253-0.1414
		c-0.421,0.1086-0.7365,0.3044-0.9502,0.5975c-0.2072,0.29-0.4623,0.8677-0.7611,1.7351l-3.5612,10.3425
		c-0.5417,1.5732-0.8297,2.7377-0.8592,3.4778c-0.0306,0.7452,0.2701,1.5256,0.9011,2.3465
		c0.6381,0.8175,1.5897,1.444,2.8607,1.8817c1.1296,0.3889,2.1926,0.5125,3.1859,0.3637c0.993-0.1486,1.8397-0.4947,2.5381-1.0324
		c0.7002-0.5429,1.2552-1.2036,1.6693-1.9806c0.4192-0.775,0.917-2.0081,1.4967-3.6924l2.7315-7.9322
		c0.3594-1.044,0.4246-1.8394,0.1973-2.3913c-0.2322-0.5539-0.8212-1.0386-1.7819-1.4598l0.1877-0.5446L369.9361,33.7905
		L369.9361,33.7905z M378.9024,37.4089l5.3725,18.2115l4.2398-9.0922c0.595-1.2761,0.7999-2.2337,0.6128-2.88
		c-0.1842-0.6392-0.864-1.2387-2.0435-1.7886l0.2435-0.5219l6.5013,3.0314l-0.2435,0.5221
		c-0.6571-0.2945-1.2302-0.4028-1.7201-0.337c-0.4966,0.0683-0.8991,0.2749-1.2095,0.6129c-0.3104,0.3376-0.678,0.949-1.0973,1.8479
		l-7.6479,16.4007l-0.5074-0.2367l-6.9435-23.4105l-6.0676,13.0122c-0.347,0.7441-0.5068,1.3643-0.4694,1.8524
		c0.0371,0.4881,0.22,0.8912,0.5392,1.2164c0.3212,0.3206,0.921,0.7004,1.7966,1.1321l-0.2435,0.5219l-6.9942-3.2613l0.2432-0.5222
		c1.029,0.4564,1.8482,0.5794,2.463,0.3716c0.6148-0.2075,1.1543-0.8093,1.6163-1.8l6.6223-14.2013
		c-0.0859-0.258-0.1619-0.4989-0.237-0.7163c-0.3861-1.2924-0.9408-2.1337-1.6673-2.5197l0.2435-0.5222L378.9024,37.4089
		L378.9024,37.4089z M395.3232,69.3066l-0.2701,0.5085l-9.9456-5.288l0.2704-0.5085l0.6313,0.3356
		c0.7815,0.4156,1.4329,0.5082,1.9423,0.2778c0.5136-0.2282,1.0151-0.8073,1.5083-1.7351l7.0282-13.2183
		c0.4833-0.9088,0.6877-1.6458,0.6089-2.213c-0.0743-0.5652-0.515-1.0652-1.3153-1.4908l-0.6313-0.3356l0.2704-0.5088l9.9456,5.2883
		l-0.2704,0.5085l-0.6358-0.3381c-0.7815-0.4156-1.4332-0.508-1.9471-0.2801c-0.5139,0.2282-1.0247,0.8144-1.5279,1.7609
		l-7.0282,13.2183c-0.4785,0.8994-0.6803,1.6316-0.5992,2.1943c0.0768,0.5601,0.5201,1.0556,1.33,1.4862L395.3232,69.3066
		L395.3232,69.3066z M425.8265,63.228l-0.3135,0.483c-0.5885-0.3183-1.2946-0.3765-2.1118-0.1754
		c-0.8215,0.1975-2.2805,1.0244-4.3795,2.4846l-14.6018,10.1165l-0.4742-0.3078l4.079-20.5878
		c0.1295-0.6596,0.1678-1.2963,0.1222-1.9111c-0.0504-0.618-0.3971-1.1418-1.0443-1.575l0.3138-0.483l8.2032,5.3275l-0.3138,0.483
		c-1.2076-0.7844-2.012-0.8677-2.4069-0.2596c-0.1715,0.2639-0.2971,0.6338-0.3846,1.1115l-2.5966,12.9778l9.9008-6.8737
		c0.6267-0.426,1.0525-0.8172,1.2847-1.175c0.5956-0.917,0.2282-1.8297-1.1098-2.7368l0.3138-0.483L425.8265,63.228L425.8265,63.228
		z M434.1238,70.3262l-5.6923,7.0294l0.3152,0.2551c0.8082,0.6546,1.5038,1.0327,2.0903,1.1305
		c0.5868,0.0975,1.2404-0.0318,1.9766-0.3901c0.7316-0.3611,1.5749-0.9958,2.5291-1.9114l0.4646,0.3758l-7.0316,8.6834
		l-0.4646-0.3762c0.7325-1.15,1.1789-2.1336,1.3328-2.942c0.1534-0.8161,0.1021-1.4823-0.1494-2.0016
		c-0.2562-0.523-0.7469-1.0783-1.4763-1.669l-0.3149-0.2551l-4.3466,5.3676c-0.6344,0.7832-0.957,1.3935-0.968,1.8309
		c-0.0074,0.4331,0.3328,0.9281,1.0293,1.4922l1.6288,1.319c2.7357,2.2153,5.7254,2.2346,8.9654,0.0473l0.4269,0.3458
		l-5.0451,4.6366L414.5557,81.279l0.3625-0.4476l0.6591,0.5338c0.5386,0.436,1.0862,0.667,1.6274,0.6933
		c0.5448,0.0224,1.2217-0.466,2.0338-1.4689l9.4212-11.6342c0.7988-0.9865,1.1347-1.7575,1.0057-2.3015
		c-0.1259-0.5479-0.4535-1.0329-0.9882-1.4658l-0.6593-0.5338l0.3625-0.4476L442.7837,75.87l-3.9135,4.8328l-0.4354-0.3523
		c0.629-1.1242,0.9675-2.1949,1.0244-3.2057c0.0533-1.0066-0.1491-1.8502-0.6069-2.5299c-0.4544-0.6764-1.2591-1.4791-2.4075-2.4089
		L434.1238,70.3262L434.1238,70.3262z M443.504,92.1284l-4.7036,5.2237c-0.6208,0.6897-0.8988,1.2932-0.8376,1.815
		c0.0649,0.5179,0.4861,1.1339,1.2671,1.8369l0.2458,0.2214l-0.3855,0.428l-8.3628-7.53l0.3855-0.428l0.2339,0.2106
		c0.7727,0.6959,1.4261,1.0545,1.9485,1.08c0.5258,0.0213,1.1046-0.3189,1.7399-1.0242l10.6846-11.8664
		c0.6315-0.7016,0.913-1.317,0.8331-1.8335c-0.0765-0.521-0.5049-1.1293-1.2776-1.8252l-0.2339-0.2106l0.3853-0.428l8.117,7.3086
		c2.2076,1.9877,3.4041,3.8475,3.5855,5.5826c0.1817,1.7351-0.2948,3.2366-1.4406,4.5091c-0.917,1.0185-1.9817,1.5953-3.187,1.7303
		c-1.209,0.1315-2.5583-0.1792-4.0518-0.9354l-1.474,8.4115c-0.3444,2.0007-0.2237,3.3009,0.3592,3.8974l-0.3855,0.428
		l-4.7719-4.2968l2.0557-11.6481L443.504,92.1284L443.504,92.1284z M450.7162,84.1182l-6.427,7.1379l0.9037,0.8138
		c1.3,1.1704,2.4928,1.6631,3.5782,1.4777c1.0857-0.1851,2.1206-0.8246,3.1019-1.9145c0.8175-0.9077,1.3043-1.7753,1.4641-2.6144
		c0.1599-0.8393,0.072-1.5863-0.2608-2.2448c-0.3367-0.6542-0.9331-1.3708-1.7932-2.1453L450.7162,84.1182L450.7162,84.1182z
		 M474.7301,105.727l-5.114,4.9873l-0.4181-0.4484c0.9833-1.2526,1.4261-2.7955,1.3346-4.6139
		c-0.0907-1.8255-0.7889-3.4427-2.0948-4.8427c-0.8875-0.9519-1.849-1.5137-2.8803-1.6968
		c-1.0278-0.1792-1.8811,0.0476-2.5594,0.6803c-0.6165,0.5749-0.8949,1.3088-0.828,2.2014
		c0.0632,0.8963,0.5423,2.3017,1.4337,4.2197c0.972,2.0982,1.628,3.74,1.9562,4.9286c0.3322,1.1854,0.3541,2.3896,0.07,3.6102
		c-0.2914,1.2197-0.9017,2.2703-1.8377,3.1431c-1.4315,1.3348-3.1252,1.8493-5.0845,1.5471
		c-1.9551-0.3061-3.7859-1.37-5.4919-3.1994c-0.9893-1.0607-1.8706-2.5141-2.6473-4.3716c-0.2645-0.6355-0.4949-1.0624-0.6914-1.273
		c-0.5054-0.5423-1.2342-0.6358-2.1827-0.2761l-0.4473-0.4799l5.8859-5.4887l0.4254,0.4564c-1.3048,1.7053-1.908,3.522-1.817,5.457
		c0.0947,1.9318,0.824,3.6289,2.1883,5.0916c1.033,1.1078,2.0849,1.7745,3.1598,2.0123c1.0746,0.2373,2.0041-0.0094,2.7881-0.7404
		c0.7685-0.7166,1.1165-1.6177,1.0375-2.6958c-0.0944-1.0789-0.5947-2.6322-1.4865-4.6596
		c-0.8949-2.0313-1.4819-3.5912-1.7685-4.6803c-0.2792-1.0891-0.2868-2.1609-0.0125-3.2117
		c0.2747-1.0511,0.8351-1.9749,1.6891-2.7714c1.3184-1.2294,2.9064-1.7473,4.7753-1.5576c1.8649,0.1933,3.5359,1.0783,5.0125,2.6617
		c1.0329,1.1078,1.8437,2.5322,2.4389,4.2891c0.2948,0.8478,0.544,1.3884,0.7475,1.6069c0.5204,0.5579,1.192,0.4493,2.0149-0.3183
		L474.7301,105.727L474.7301,105.727z M467.4213,131.4579l-0.4538,0.3546l-6.935-8.8761l0.4538-0.3546l0.4402,0.5635
		c0.5451,0.6976,1.1024,1.0471,1.6614,1.0437c0.5621,0.0003,1.2558-0.3246,2.0838-0.9714l11.7969-9.2168
		c0.811-0.6338,1.2974-1.224,1.4565-1.7742c0.1619-0.5465-0.0371-1.1826-0.5953-1.8969l-0.4402-0.5632l0.4538-0.3546l6.935,8.8761
		l-0.4538,0.3546l-0.4433-0.5675c-0.5451-0.6976-1.1027-1.0471-1.6648-1.048c-0.5624-0.0006-1.2674,0.3274-2.1121,0.9873
		l-11.7969,9.2169c-0.8028,0.627-1.2852,1.2138-1.4397,1.7609c-0.1579,0.5428,0.0457,1.1758,0.6103,1.8987L467.4213,131.4579
		L467.4213,131.4579z M496.6465,135.7176l-4.7492,3.3253l-0.3396-0.4853c2.2603-2.0903,2.6181-4.2483,1.0641-6.4678l-1.1809-1.6861
		l-14.146,9.9051c-0.8345,0.5842-1.347,1.1449-1.533,1.6787c-0.1831,0.5386-0.0162,1.1767,0.504,1.9193l0.4558,0.6511l-0.472,0.3302
		l-6.5676-9.3798l0.4717-0.3302l0.4833,0.6902c0.4008,0.5723,0.8606,0.9405,1.3705,1.1109
		c0.5142,0.1672,1.2994-0.1157,2.3564-0.8558l14.1463-9.9054l-1.2818-1.8303c-0.4986-0.7121-1.0233-1.2107-1.5837-1.5086
		c-0.557-0.2934-1.2847-0.4025-2.1796-0.3229c-0.8988,0.0825-1.7495,0.3464-2.5531,0.798l-0.3671-0.5241l4.7489-3.3253
		L496.6465,135.7176L496.6465,135.7176z M494.7906,155.223l8.8693-0.2149c0.9159-0.0199,1.5792-0.1434,1.9897-0.3711
		c0.8022-0.4447,0.8067-1.4046,0.0187-2.8704l0.504-0.2792l3.1595,5.6999l-0.5037,0.2795c-0.2792-0.504-0.7004-0.8558-1.2674-1.0536
		c-0.5624-0.2007-1.7283-0.2801-3.5025-0.2355l-9.932,0.2004l-4.8793,2.7045c-0.8909,0.4938-1.4593,0.9978-1.7025,1.5046
		c-0.2409,0.5116-0.1443,1.1591,0.2953,1.9522l0.525,0.9468l-0.5037,0.2795l-5.7739-10.4162l0.504-0.2792l0.4938,0.8909
		c0.4291,0.7744,0.9224,1.2025,1.4751,1.2861c0.555,0.0887,1.2909-0.1239,2.2099-0.6333l4.0722-2.2572l6.4489-10.0264
		c0.7993-1.2421,1.2163-2.1073,1.2506-2.5957c0.034-0.4884-0.1106-1.0242-0.4337-1.6072l0.5037-0.2792l4.9541,8.9374l-0.5037,0.2792
		c-0.447-0.7401-0.7866-1.1985-1.0253-1.3768c-0.2347-0.1811-0.5187-0.176-0.8453,0.0048c-0.2656,0.1474-0.5732,0.4949-0.9224,1.042
		L494.7906,155.223L494.7906,155.223z"/>
	<polygon class="st5" points="38.5836,194.9764 42.0699,183.9865 33.1357,176.9804 44.2798,176.9804 47.5688,167.0699 
		50.9262,176.9804 62.3187,176.9804 53.3847,183.9865 56.6225,194.7278 47.5688,188.2007 38.5836,194.9764 	"/>
	<polygon class="st5" points="499.0412,194.9764 502.5275,183.9865 493.5933,176.9804 504.7374,176.9804 508.0265,167.0699 
		511.3838,176.9804 522.7762,176.9804 513.8423,183.9865 517.08,194.7278 508.0265,188.2007 499.0412,194.9764 	"/>
</g>
</svg>
